<?xml version="1.0" encoding="utf-8" standalone="no"?>
<!DOCTYPE svg PUBLIC "-//W3C//DTD SVG 1.1//EN"
  "http://www.w3.org/Graphics/SVG/1.1/DTD/svg11.dtd">
<!-- Created with matplotlib (https://matplotlib.org/) -->
<svg height="269.987812pt" version="1.1" viewBox="0 0 380.665 269.987812" width="380.665pt" xmlns="http://www.w3.org/2000/svg" xmlns:xlink="http://www.w3.org/1999/xlink">
 <metadata>
  <rdf:RDF xmlns:cc="http://creativecommons.org/ns#" xmlns:dc="http://purl.org/dc/elements/1.1/" xmlns:rdf="http://www.w3.org/1999/02/22-rdf-syntax-ns#">
   <cc:Work>
    <dc:type rdf:resource="http://purl.org/dc/dcmitype/StillImage"/>
    <dc:date>2020-10-24T16:06:42.132358</dc:date>
    <dc:format>image/svg+xml</dc:format>
    <dc:creator>
     <cc:Agent>
      <dc:title>Matplotlib v3.3.2, https://matplotlib.org/</dc:title>
     </cc:Agent>
    </dc:creator>
   </cc:Work>
  </rdf:RDF>
 </metadata>
 <defs>
  <style type="text/css">*{stroke-linecap:butt;stroke-linejoin:round;}</style>
 </defs>
 <g id="figure_1">
  <g id="patch_1">
   <path d="M 0 269.987812 
L 380.665 269.987812 
L 380.665 0 
L 0 0 
z
" style="fill:none;"/>
  </g>
  <g id="axes_1">
   <g id="patch_2">
    <path d="M 38.665 238.238437 
L 373.465 238.238437 
L 373.465 20.798437 
L 38.665 20.798437 
z
" style="fill:#ffffff;"/>
   </g>
   <g id="matplotlib.axis_1">
    <g id="xtick_1">
     <g id="line2d_1">
      <defs>
       <path d="M 0 0 
L 0 3.5 
" id="mdfedb008dc" style="stroke:#000000;stroke-width:0.8;"/>
      </defs>
      <g>
       <use style="stroke:#000000;stroke-width:0.8;" x="53.405374" xlink:href="#mdfedb008dc" y="238.238437"/>
      </g>
     </g>
     <g id="text_1">
      <!-- 2019-01 -->
      <g transform="translate(40.87053 249.7975)scale(0.06 -0.06)">
       <defs>
        <path d="M 19.1875 8.296875 
L 53.609375 8.296875 
L 53.609375 0 
L 7.328125 0 
L 7.328125 8.296875 
Q 12.9375 14.109375 22.625 23.890625 
Q 32.328125 33.6875 34.8125 36.53125 
Q 39.546875 41.84375 41.421875 45.53125 
Q 43.3125 49.21875 43.3125 52.78125 
Q 43.3125 58.59375 39.234375 62.25 
Q 35.15625 65.921875 28.609375 65.921875 
Q 23.96875 65.921875 18.8125 64.3125 
Q 13.671875 62.703125 7.8125 59.421875 
L 7.8125 69.390625 
Q 13.765625 71.78125 18.9375 73 
Q 24.125 74.21875 28.421875 74.21875 
Q 39.75 74.21875 46.484375 68.546875 
Q 53.21875 62.890625 53.21875 53.421875 
Q 53.21875 48.921875 51.53125 44.890625 
Q 49.859375 40.875 45.40625 35.40625 
Q 44.1875 33.984375 37.640625 27.21875 
Q 31.109375 20.453125 19.1875 8.296875 
z
" id="DejaVuSans-50"/>
        <path d="M 31.78125 66.40625 
Q 24.171875 66.40625 20.328125 58.90625 
Q 16.5 51.421875 16.5 36.375 
Q 16.5 21.390625 20.328125 13.890625 
Q 24.171875 6.390625 31.78125 6.390625 
Q 39.453125 6.390625 43.28125 13.890625 
Q 47.125 21.390625 47.125 36.375 
Q 47.125 51.421875 43.28125 58.90625 
Q 39.453125 66.40625 31.78125 66.40625 
z
M 31.78125 74.21875 
Q 44.046875 74.21875 50.515625 64.515625 
Q 56.984375 54.828125 56.984375 36.375 
Q 56.984375 17.96875 50.515625 8.265625 
Q 44.046875 -1.421875 31.78125 -1.421875 
Q 19.53125 -1.421875 13.0625 8.265625 
Q 6.59375 17.96875 6.59375 36.375 
Q 6.59375 54.828125 13.0625 64.515625 
Q 19.53125 74.21875 31.78125 74.21875 
z
" id="DejaVuSans-48"/>
        <path d="M 12.40625 8.296875 
L 28.515625 8.296875 
L 28.515625 63.921875 
L 10.984375 60.40625 
L 10.984375 69.390625 
L 28.421875 72.90625 
L 38.28125 72.90625 
L 38.28125 8.296875 
L 54.390625 8.296875 
L 54.390625 0 
L 12.40625 0 
z
" id="DejaVuSans-49"/>
        <path d="M 10.984375 1.515625 
L 10.984375 10.5 
Q 14.703125 8.734375 18.5 7.8125 
Q 22.3125 6.890625 25.984375 6.890625 
Q 35.75 6.890625 40.890625 13.453125 
Q 46.046875 20.015625 46.78125 33.40625 
Q 43.953125 29.203125 39.59375 26.953125 
Q 35.25 24.703125 29.984375 24.703125 
Q 19.046875 24.703125 12.671875 31.3125 
Q 6.296875 37.9375 6.296875 49.421875 
Q 6.296875 60.640625 12.9375 67.421875 
Q 19.578125 74.21875 30.609375 74.21875 
Q 43.265625 74.21875 49.921875 64.515625 
Q 56.59375 54.828125 56.59375 36.375 
Q 56.59375 19.140625 48.40625 8.859375 
Q 40.234375 -1.421875 26.421875 -1.421875 
Q 22.703125 -1.421875 18.890625 -0.6875 
Q 15.09375 0.046875 10.984375 1.515625 
z
M 30.609375 32.421875 
Q 37.25 32.421875 41.125 36.953125 
Q 45.015625 41.5 45.015625 49.421875 
Q 45.015625 57.28125 41.125 61.84375 
Q 37.25 66.40625 30.609375 66.40625 
Q 23.96875 66.40625 20.09375 61.84375 
Q 16.21875 57.28125 16.21875 49.421875 
Q 16.21875 41.5 20.09375 36.953125 
Q 23.96875 32.421875 30.609375 32.421875 
z
" id="DejaVuSans-57"/>
        <path d="M 4.890625 31.390625 
L 31.203125 31.390625 
L 31.203125 23.390625 
L 4.890625 23.390625 
z
" id="DejaVuSans-45"/>
       </defs>
       <use xlink:href="#DejaVuSans-50"/>
       <use x="63.623047" xlink:href="#DejaVuSans-48"/>
       <use x="127.246094" xlink:href="#DejaVuSans-49"/>
       <use x="190.869141" xlink:href="#DejaVuSans-57"/>
       <use x="254.492188" xlink:href="#DejaVuSans-45"/>
       <use x="290.576172" xlink:href="#DejaVuSans-48"/>
       <use x="354.199219" xlink:href="#DejaVuSans-49"/>
      </g>
     </g>
    </g>
    <g id="xtick_2">
     <g id="line2d_2">
      <g>
       <use style="stroke:#000000;stroke-width:0.8;" x="81.59604" xlink:href="#mdfedb008dc" y="238.238437"/>
      </g>
     </g>
     <g id="text_2">
      <!-- 2019-03 -->
      <g transform="translate(69.061197 249.7975)scale(0.06 -0.06)">
       <defs>
        <path d="M 40.578125 39.3125 
Q 47.65625 37.796875 51.625 33 
Q 55.609375 28.21875 55.609375 21.1875 
Q 55.609375 10.40625 48.1875 4.484375 
Q 40.765625 -1.421875 27.09375 -1.421875 
Q 22.515625 -1.421875 17.65625 -0.515625 
Q 12.796875 0.390625 7.625 2.203125 
L 7.625 11.71875 
Q 11.71875 9.328125 16.59375 8.109375 
Q 21.484375 6.890625 26.8125 6.890625 
Q 36.078125 6.890625 40.9375 10.546875 
Q 45.796875 14.203125 45.796875 21.1875 
Q 45.796875 27.640625 41.28125 31.265625 
Q 36.765625 34.90625 28.71875 34.90625 
L 20.21875 34.90625 
L 20.21875 43.015625 
L 29.109375 43.015625 
Q 36.375 43.015625 40.234375 45.921875 
Q 44.09375 48.828125 44.09375 54.296875 
Q 44.09375 59.90625 40.109375 62.90625 
Q 36.140625 65.921875 28.71875 65.921875 
Q 24.65625 65.921875 20.015625 65.03125 
Q 15.375 64.15625 9.8125 62.3125 
L 9.8125 71.09375 
Q 15.4375 72.65625 20.34375 73.4375 
Q 25.25 74.21875 29.59375 74.21875 
Q 40.828125 74.21875 47.359375 69.109375 
Q 53.90625 64.015625 53.90625 55.328125 
Q 53.90625 49.265625 50.4375 45.09375 
Q 46.96875 40.921875 40.578125 39.3125 
z
" id="DejaVuSans-51"/>
       </defs>
       <use xlink:href="#DejaVuSans-50"/>
       <use x="63.623047" xlink:href="#DejaVuSans-48"/>
       <use x="127.246094" xlink:href="#DejaVuSans-49"/>
       <use x="190.869141" xlink:href="#DejaVuSans-57"/>
       <use x="254.492188" xlink:href="#DejaVuSans-45"/>
       <use x="290.576172" xlink:href="#DejaVuSans-48"/>
       <use x="354.199219" xlink:href="#DejaVuSans-51"/>
      </g>
     </g>
    </g>
    <g id="xtick_3">
     <g id="line2d_3">
      <g>
       <use style="stroke:#000000;stroke-width:0.8;" x="110.742323" xlink:href="#mdfedb008dc" y="238.238437"/>
      </g>
     </g>
     <g id="text_3">
      <!-- 2019-05 -->
      <g transform="translate(98.207479 249.7975)scale(0.06 -0.06)">
       <defs>
        <path d="M 10.796875 72.90625 
L 49.515625 72.90625 
L 49.515625 64.59375 
L 19.828125 64.59375 
L 19.828125 46.734375 
Q 21.96875 47.46875 24.109375 47.828125 
Q 26.265625 48.1875 28.421875 48.1875 
Q 40.625 48.1875 47.75 41.5 
Q 54.890625 34.8125 54.890625 23.390625 
Q 54.890625 11.625 47.5625 5.09375 
Q 40.234375 -1.421875 26.90625 -1.421875 
Q 22.3125 -1.421875 17.546875 -0.640625 
Q 12.796875 0.140625 7.71875 1.703125 
L 7.71875 11.625 
Q 12.109375 9.234375 16.796875 8.0625 
Q 21.484375 6.890625 26.703125 6.890625 
Q 35.15625 6.890625 40.078125 11.328125 
Q 45.015625 15.765625 45.015625 23.390625 
Q 45.015625 31 40.078125 35.4375 
Q 35.15625 39.890625 26.703125 39.890625 
Q 22.75 39.890625 18.8125 39.015625 
Q 14.890625 38.140625 10.796875 36.28125 
z
" id="DejaVuSans-53"/>
       </defs>
       <use xlink:href="#DejaVuSans-50"/>
       <use x="63.623047" xlink:href="#DejaVuSans-48"/>
       <use x="127.246094" xlink:href="#DejaVuSans-49"/>
       <use x="190.869141" xlink:href="#DejaVuSans-57"/>
       <use x="254.492188" xlink:href="#DejaVuSans-45"/>
       <use x="290.576172" xlink:href="#DejaVuSans-48"/>
       <use x="354.199219" xlink:href="#DejaVuSans-53"/>
      </g>
     </g>
    </g>
    <g id="xtick_4">
     <g id="line2d_4">
      <g>
       <use style="stroke:#000000;stroke-width:0.8;" x="139.888605" xlink:href="#mdfedb008dc" y="238.238437"/>
      </g>
     </g>
     <g id="text_4">
      <!-- 2019-07 -->
      <g transform="translate(127.353761 249.7975)scale(0.06 -0.06)">
       <defs>
        <path d="M 8.203125 72.90625 
L 55.078125 72.90625 
L 55.078125 68.703125 
L 28.609375 0 
L 18.3125 0 
L 43.21875 64.59375 
L 8.203125 64.59375 
z
" id="DejaVuSans-55"/>
       </defs>
       <use xlink:href="#DejaVuSans-50"/>
       <use x="63.623047" xlink:href="#DejaVuSans-48"/>
       <use x="127.246094" xlink:href="#DejaVuSans-49"/>
       <use x="190.869141" xlink:href="#DejaVuSans-57"/>
       <use x="254.492188" xlink:href="#DejaVuSans-45"/>
       <use x="290.576172" xlink:href="#DejaVuSans-48"/>
       <use x="354.199219" xlink:href="#DejaVuSans-55"/>
      </g>
     </g>
    </g>
    <g id="xtick_5">
     <g id="line2d_5">
      <g>
       <use style="stroke:#000000;stroke-width:0.8;" x="169.512695" xlink:href="#mdfedb008dc" y="238.238437"/>
      </g>
     </g>
     <g id="text_5">
      <!-- 2019-09 -->
      <g transform="translate(156.977851 249.7975)scale(0.06 -0.06)">
       <use xlink:href="#DejaVuSans-50"/>
       <use x="63.623047" xlink:href="#DejaVuSans-48"/>
       <use x="127.246094" xlink:href="#DejaVuSans-49"/>
       <use x="190.869141" xlink:href="#DejaVuSans-57"/>
       <use x="254.492188" xlink:href="#DejaVuSans-45"/>
       <use x="290.576172" xlink:href="#DejaVuSans-48"/>
       <use x="354.199219" xlink:href="#DejaVuSans-57"/>
      </g>
     </g>
    </g>
    <g id="xtick_6">
     <g id="line2d_6">
      <g>
       <use style="stroke:#000000;stroke-width:0.8;" x="198.658977" xlink:href="#mdfedb008dc" y="238.238437"/>
      </g>
     </g>
     <g id="text_6">
      <!-- 2019-11 -->
      <g transform="translate(186.124134 249.7975)scale(0.06 -0.06)">
       <use xlink:href="#DejaVuSans-50"/>
       <use x="63.623047" xlink:href="#DejaVuSans-48"/>
       <use x="127.246094" xlink:href="#DejaVuSans-49"/>
       <use x="190.869141" xlink:href="#DejaVuSans-57"/>
       <use x="254.492188" xlink:href="#DejaVuSans-45"/>
       <use x="290.576172" xlink:href="#DejaVuSans-49"/>
       <use x="354.199219" xlink:href="#DejaVuSans-49"/>
      </g>
     </g>
    </g>
    <g id="xtick_7">
     <g id="line2d_7">
      <g>
       <use style="stroke:#000000;stroke-width:0.8;" x="227.80526" xlink:href="#mdfedb008dc" y="238.238437"/>
      </g>
     </g>
     <g id="text_7">
      <!-- 2020-01 -->
      <g transform="translate(215.270416 249.7975)scale(0.06 -0.06)">
       <use xlink:href="#DejaVuSans-50"/>
       <use x="63.623047" xlink:href="#DejaVuSans-48"/>
       <use x="127.246094" xlink:href="#DejaVuSans-50"/>
       <use x="190.869141" xlink:href="#DejaVuSans-48"/>
       <use x="254.492188" xlink:href="#DejaVuSans-45"/>
       <use x="290.576172" xlink:href="#DejaVuSans-48"/>
       <use x="354.199219" xlink:href="#DejaVuSans-49"/>
      </g>
     </g>
    </g>
    <g id="xtick_8">
     <g id="line2d_8">
      <g>
       <use style="stroke:#000000;stroke-width:0.8;" x="256.473734" xlink:href="#mdfedb008dc" y="238.238437"/>
      </g>
     </g>
     <g id="text_8">
      <!-- 2020-03 -->
      <g transform="translate(243.93889 249.7975)scale(0.06 -0.06)">
       <use xlink:href="#DejaVuSans-50"/>
       <use x="63.623047" xlink:href="#DejaVuSans-48"/>
       <use x="127.246094" xlink:href="#DejaVuSans-50"/>
       <use x="190.869141" xlink:href="#DejaVuSans-48"/>
       <use x="254.492188" xlink:href="#DejaVuSans-45"/>
       <use x="290.576172" xlink:href="#DejaVuSans-48"/>
       <use x="354.199219" xlink:href="#DejaVuSans-51"/>
      </g>
     </g>
    </g>
    <g id="xtick_9">
     <g id="line2d_9">
      <g>
       <use style="stroke:#000000;stroke-width:0.8;" x="285.620016" xlink:href="#mdfedb008dc" y="238.238437"/>
      </g>
     </g>
     <g id="text_9">
      <!-- 2020-05 -->
      <g transform="translate(273.085173 249.7975)scale(0.06 -0.06)">
       <use xlink:href="#DejaVuSans-50"/>
       <use x="63.623047" xlink:href="#DejaVuSans-48"/>
       <use x="127.246094" xlink:href="#DejaVuSans-50"/>
       <use x="190.869141" xlink:href="#DejaVuSans-48"/>
       <use x="254.492188" xlink:href="#DejaVuSans-45"/>
       <use x="290.576172" xlink:href="#DejaVuSans-48"/>
       <use x="354.199219" xlink:href="#DejaVuSans-53"/>
      </g>
     </g>
    </g>
    <g id="xtick_10">
     <g id="line2d_10">
      <g>
       <use style="stroke:#000000;stroke-width:0.8;" x="314.766299" xlink:href="#mdfedb008dc" y="238.238437"/>
      </g>
     </g>
     <g id="text_10">
      <!-- 2020-07 -->
      <g transform="translate(302.231455 249.7975)scale(0.06 -0.06)">
       <use xlink:href="#DejaVuSans-50"/>
       <use x="63.623047" xlink:href="#DejaVuSans-48"/>
       <use x="127.246094" xlink:href="#DejaVuSans-50"/>
       <use x="190.869141" xlink:href="#DejaVuSans-48"/>
       <use x="254.492188" xlink:href="#DejaVuSans-45"/>
       <use x="290.576172" xlink:href="#DejaVuSans-48"/>
       <use x="354.199219" xlink:href="#DejaVuSans-55"/>
      </g>
     </g>
    </g>
    <g id="xtick_11">
     <g id="line2d_11">
      <g>
       <use style="stroke:#000000;stroke-width:0.8;" x="344.390389" xlink:href="#mdfedb008dc" y="238.238437"/>
      </g>
     </g>
     <g id="text_11">
      <!-- 2020-09 -->
      <g transform="translate(331.855545 249.7975)scale(0.06 -0.06)">
       <use xlink:href="#DejaVuSans-50"/>
       <use x="63.623047" xlink:href="#DejaVuSans-48"/>
       <use x="127.246094" xlink:href="#DejaVuSans-50"/>
       <use x="190.869141" xlink:href="#DejaVuSans-48"/>
       <use x="254.492188" xlink:href="#DejaVuSans-45"/>
       <use x="290.576172" xlink:href="#DejaVuSans-48"/>
       <use x="354.199219" xlink:href="#DejaVuSans-57"/>
      </g>
     </g>
    </g>
    <g id="text_12">
     <!-- date -->
     <g transform="translate(197.045 261.124062)scale(0.08 -0.08)">
      <defs>
       <path d="M 45.40625 46.390625 
L 45.40625 75.984375 
L 54.390625 75.984375 
L 54.390625 0 
L 45.40625 0 
L 45.40625 8.203125 
Q 42.578125 3.328125 38.25 0.953125 
Q 33.9375 -1.421875 27.875 -1.421875 
Q 17.96875 -1.421875 11.734375 6.484375 
Q 5.515625 14.40625 5.515625 27.296875 
Q 5.515625 40.1875 11.734375 48.09375 
Q 17.96875 56 27.875 56 
Q 33.9375 56 38.25 53.625 
Q 42.578125 51.265625 45.40625 46.390625 
z
M 14.796875 27.296875 
Q 14.796875 17.390625 18.875 11.75 
Q 22.953125 6.109375 30.078125 6.109375 
Q 37.203125 6.109375 41.296875 11.75 
Q 45.40625 17.390625 45.40625 27.296875 
Q 45.40625 37.203125 41.296875 42.84375 
Q 37.203125 48.484375 30.078125 48.484375 
Q 22.953125 48.484375 18.875 42.84375 
Q 14.796875 37.203125 14.796875 27.296875 
z
" id="DejaVuSans-100"/>
       <path d="M 34.28125 27.484375 
Q 23.390625 27.484375 19.1875 25 
Q 14.984375 22.515625 14.984375 16.5 
Q 14.984375 11.71875 18.140625 8.90625 
Q 21.296875 6.109375 26.703125 6.109375 
Q 34.1875 6.109375 38.703125 11.40625 
Q 43.21875 16.703125 43.21875 25.484375 
L 43.21875 27.484375 
z
M 52.203125 31.203125 
L 52.203125 0 
L 43.21875 0 
L 43.21875 8.296875 
Q 40.140625 3.328125 35.546875 0.953125 
Q 30.953125 -1.421875 24.3125 -1.421875 
Q 15.921875 -1.421875 10.953125 3.296875 
Q 6 8.015625 6 15.921875 
Q 6 25.140625 12.171875 29.828125 
Q 18.359375 34.515625 30.609375 34.515625 
L 43.21875 34.515625 
L 43.21875 35.40625 
Q 43.21875 41.609375 39.140625 45 
Q 35.0625 48.390625 27.6875 48.390625 
Q 23 48.390625 18.546875 47.265625 
Q 14.109375 46.140625 10.015625 43.890625 
L 10.015625 52.203125 
Q 14.9375 54.109375 19.578125 55.046875 
Q 24.21875 56 28.609375 56 
Q 40.484375 56 46.34375 49.84375 
Q 52.203125 43.703125 52.203125 31.203125 
z
" id="DejaVuSans-97"/>
       <path d="M 18.3125 70.21875 
L 18.3125 54.6875 
L 36.8125 54.6875 
L 36.8125 47.703125 
L 18.3125 47.703125 
L 18.3125 18.015625 
Q 18.3125 11.328125 20.140625 9.421875 
Q 21.96875 7.515625 27.59375 7.515625 
L 36.8125 7.515625 
L 36.8125 0 
L 27.59375 0 
Q 17.1875 0 13.234375 3.875 
Q 9.28125 7.765625 9.28125 18.015625 
L 9.28125 47.703125 
L 2.6875 47.703125 
L 2.6875 54.6875 
L 9.28125 54.6875 
L 9.28125 70.21875 
z
" id="DejaVuSans-116"/>
       <path d="M 56.203125 29.59375 
L 56.203125 25.203125 
L 14.890625 25.203125 
Q 15.484375 15.921875 20.484375 11.0625 
Q 25.484375 6.203125 34.421875 6.203125 
Q 39.59375 6.203125 44.453125 7.46875 
Q 49.3125 8.734375 54.109375 11.28125 
L 54.109375 2.78125 
Q 49.265625 0.734375 44.1875 -0.34375 
Q 39.109375 -1.421875 33.890625 -1.421875 
Q 20.796875 -1.421875 13.15625 6.1875 
Q 5.515625 13.8125 5.515625 26.8125 
Q 5.515625 40.234375 12.765625 48.109375 
Q 20.015625 56 32.328125 56 
Q 43.359375 56 49.78125 48.890625 
Q 56.203125 41.796875 56.203125 29.59375 
z
M 47.21875 32.234375 
Q 47.125 39.59375 43.09375 43.984375 
Q 39.0625 48.390625 32.421875 48.390625 
Q 24.90625 48.390625 20.390625 44.140625 
Q 15.875 39.890625 15.1875 32.171875 
z
" id="DejaVuSans-101"/>
      </defs>
      <use xlink:href="#DejaVuSans-100"/>
      <use x="63.476562" xlink:href="#DejaVuSans-97"/>
      <use x="124.755859" xlink:href="#DejaVuSans-116"/>
      <use x="163.964844" xlink:href="#DejaVuSans-101"/>
     </g>
    </g>
   </g>
   <g id="matplotlib.axis_2">
    <g id="ytick_1">
     <g id="line2d_12">
      <defs>
       <path d="M 0 0 
L -3.5 0 
" id="m273d6002a4" style="stroke:#000000;stroke-width:0.8;"/>
      </defs>
      <g>
       <use style="stroke:#000000;stroke-width:0.8;" x="38.665" xlink:href="#m273d6002a4" y="228.354801"/>
      </g>
     </g>
     <g id="text_13">
      <!-- 0.0 -->
      <g transform="translate(18.9425 231.394176)scale(0.08 -0.08)">
       <defs>
        <path d="M 10.6875 12.40625 
L 21 12.40625 
L 21 0 
L 10.6875 0 
z
" id="DejaVuSans-46"/>
       </defs>
       <use xlink:href="#DejaVuSans-48"/>
       <use x="63.623047" xlink:href="#DejaVuSans-46"/>
       <use x="95.410156" xlink:href="#DejaVuSans-48"/>
      </g>
     </g>
    </g>
    <g id="ytick_2">
     <g id="line2d_13">
      <g>
       <use style="stroke:#000000;stroke-width:0.8;" x="38.665" xlink:href="#m273d6002a4" y="188.820256"/>
      </g>
     </g>
     <g id="text_14">
      <!-- 0.2 -->
      <g transform="translate(18.9425 191.859631)scale(0.08 -0.08)">
       <use xlink:href="#DejaVuSans-48"/>
       <use x="63.623047" xlink:href="#DejaVuSans-46"/>
       <use x="95.410156" xlink:href="#DejaVuSans-50"/>
      </g>
     </g>
    </g>
    <g id="ytick_3">
     <g id="line2d_14">
      <g>
       <use style="stroke:#000000;stroke-width:0.8;" x="38.665" xlink:href="#m273d6002a4" y="149.28571"/>
      </g>
     </g>
     <g id="text_15">
      <!-- 0.4 -->
      <g transform="translate(18.9425 152.325085)scale(0.08 -0.08)">
       <defs>
        <path d="M 37.796875 64.3125 
L 12.890625 25.390625 
L 37.796875 25.390625 
z
M 35.203125 72.90625 
L 47.609375 72.90625 
L 47.609375 25.390625 
L 58.015625 25.390625 
L 58.015625 17.1875 
L 47.609375 17.1875 
L 47.609375 0 
L 37.796875 0 
L 37.796875 17.1875 
L 4.890625 17.1875 
L 4.890625 26.703125 
z
" id="DejaVuSans-52"/>
       </defs>
       <use xlink:href="#DejaVuSans-48"/>
       <use x="63.623047" xlink:href="#DejaVuSans-46"/>
       <use x="95.410156" xlink:href="#DejaVuSans-52"/>
      </g>
     </g>
    </g>
    <g id="ytick_4">
     <g id="line2d_15">
      <g>
       <use style="stroke:#000000;stroke-width:0.8;" x="38.665" xlink:href="#m273d6002a4" y="109.751165"/>
      </g>
     </g>
     <g id="text_16">
      <!-- 0.6 -->
      <g transform="translate(18.9425 112.79054)scale(0.08 -0.08)">
       <defs>
        <path d="M 33.015625 40.375 
Q 26.375 40.375 22.484375 35.828125 
Q 18.609375 31.296875 18.609375 23.390625 
Q 18.609375 15.53125 22.484375 10.953125 
Q 26.375 6.390625 33.015625 6.390625 
Q 39.65625 6.390625 43.53125 10.953125 
Q 47.40625 15.53125 47.40625 23.390625 
Q 47.40625 31.296875 43.53125 35.828125 
Q 39.65625 40.375 33.015625 40.375 
z
M 52.59375 71.296875 
L 52.59375 62.3125 
Q 48.875 64.0625 45.09375 64.984375 
Q 41.3125 65.921875 37.59375 65.921875 
Q 27.828125 65.921875 22.671875 59.328125 
Q 17.53125 52.734375 16.796875 39.40625 
Q 19.671875 43.65625 24.015625 45.921875 
Q 28.375 48.1875 33.59375 48.1875 
Q 44.578125 48.1875 50.953125 41.515625 
Q 57.328125 34.859375 57.328125 23.390625 
Q 57.328125 12.15625 50.6875 5.359375 
Q 44.046875 -1.421875 33.015625 -1.421875 
Q 20.359375 -1.421875 13.671875 8.265625 
Q 6.984375 17.96875 6.984375 36.375 
Q 6.984375 53.65625 15.1875 63.9375 
Q 23.390625 74.21875 37.203125 74.21875 
Q 40.921875 74.21875 44.703125 73.484375 
Q 48.484375 72.75 52.59375 71.296875 
z
" id="DejaVuSans-54"/>
       </defs>
       <use xlink:href="#DejaVuSans-48"/>
       <use x="63.623047" xlink:href="#DejaVuSans-46"/>
       <use x="95.410156" xlink:href="#DejaVuSans-54"/>
      </g>
     </g>
    </g>
    <g id="ytick_5">
     <g id="line2d_16">
      <g>
       <use style="stroke:#000000;stroke-width:0.8;" x="38.665" xlink:href="#m273d6002a4" y="70.216619"/>
      </g>
     </g>
     <g id="text_17">
      <!-- 0.8 -->
      <g transform="translate(18.9425 73.255994)scale(0.08 -0.08)">
       <defs>
        <path d="M 31.78125 34.625 
Q 24.75 34.625 20.71875 30.859375 
Q 16.703125 27.09375 16.703125 20.515625 
Q 16.703125 13.921875 20.71875 10.15625 
Q 24.75 6.390625 31.78125 6.390625 
Q 38.8125 6.390625 42.859375 10.171875 
Q 46.921875 13.96875 46.921875 20.515625 
Q 46.921875 27.09375 42.890625 30.859375 
Q 38.875 34.625 31.78125 34.625 
z
M 21.921875 38.8125 
Q 15.578125 40.375 12.03125 44.71875 
Q 8.5 49.078125 8.5 55.328125 
Q 8.5 64.0625 14.71875 69.140625 
Q 20.953125 74.21875 31.78125 74.21875 
Q 42.671875 74.21875 48.875 69.140625 
Q 55.078125 64.0625 55.078125 55.328125 
Q 55.078125 49.078125 51.53125 44.71875 
Q 48 40.375 41.703125 38.8125 
Q 48.828125 37.15625 52.796875 32.3125 
Q 56.78125 27.484375 56.78125 20.515625 
Q 56.78125 9.90625 50.3125 4.234375 
Q 43.84375 -1.421875 31.78125 -1.421875 
Q 19.734375 -1.421875 13.25 4.234375 
Q 6.78125 9.90625 6.78125 20.515625 
Q 6.78125 27.484375 10.78125 32.3125 
Q 14.796875 37.15625 21.921875 38.8125 
z
M 18.3125 54.390625 
Q 18.3125 48.734375 21.84375 45.5625 
Q 25.390625 42.390625 31.78125 42.390625 
Q 38.140625 42.390625 41.71875 45.5625 
Q 45.3125 48.734375 45.3125 54.390625 
Q 45.3125 60.0625 41.71875 63.234375 
Q 38.140625 66.40625 31.78125 66.40625 
Q 25.390625 66.40625 21.84375 63.234375 
Q 18.3125 60.0625 18.3125 54.390625 
z
" id="DejaVuSans-56"/>
       </defs>
       <use xlink:href="#DejaVuSans-48"/>
       <use x="63.623047" xlink:href="#DejaVuSans-46"/>
       <use x="95.410156" xlink:href="#DejaVuSans-56"/>
      </g>
     </g>
    </g>
    <g id="ytick_6">
     <g id="line2d_17">
      <g>
       <use style="stroke:#000000;stroke-width:0.8;" x="38.665" xlink:href="#m273d6002a4" y="30.682074"/>
      </g>
     </g>
     <g id="text_18">
      <!-- 1.0 -->
      <g transform="translate(18.9425 33.721449)scale(0.08 -0.08)">
       <use xlink:href="#DejaVuSans-49"/>
       <use x="63.623047" xlink:href="#DejaVuSans-46"/>
       <use x="95.410156" xlink:href="#DejaVuSans-48"/>
      </g>
     </g>
    </g>
    <g id="text_19">
     <!-- stock price - open -->
     <g transform="translate(13.27875 165.329062)rotate(-90)scale(0.08 -0.08)">
      <defs>
       <path d="M 44.28125 53.078125 
L 44.28125 44.578125 
Q 40.484375 46.53125 36.375 47.5 
Q 32.28125 48.484375 27.875 48.484375 
Q 21.1875 48.484375 17.84375 46.4375 
Q 14.5 44.390625 14.5 40.28125 
Q 14.5 37.15625 16.890625 35.375 
Q 19.28125 33.59375 26.515625 31.984375 
L 29.59375 31.296875 
Q 39.15625 29.25 43.1875 25.515625 
Q 47.21875 21.78125 47.21875 15.09375 
Q 47.21875 7.46875 41.1875 3.015625 
Q 35.15625 -1.421875 24.609375 -1.421875 
Q 20.21875 -1.421875 15.453125 -0.5625 
Q 10.6875 0.296875 5.421875 2 
L 5.421875 11.28125 
Q 10.40625 8.6875 15.234375 7.390625 
Q 20.0625 6.109375 24.8125 6.109375 
Q 31.15625 6.109375 34.5625 8.28125 
Q 37.984375 10.453125 37.984375 14.40625 
Q 37.984375 18.0625 35.515625 20.015625 
Q 33.0625 21.96875 24.703125 23.78125 
L 21.578125 24.515625 
Q 13.234375 26.265625 9.515625 29.90625 
Q 5.8125 33.546875 5.8125 39.890625 
Q 5.8125 47.609375 11.28125 51.796875 
Q 16.75 56 26.8125 56 
Q 31.78125 56 36.171875 55.265625 
Q 40.578125 54.546875 44.28125 53.078125 
z
" id="DejaVuSans-115"/>
       <path d="M 30.609375 48.390625 
Q 23.390625 48.390625 19.1875 42.75 
Q 14.984375 37.109375 14.984375 27.296875 
Q 14.984375 17.484375 19.15625 11.84375 
Q 23.34375 6.203125 30.609375 6.203125 
Q 37.796875 6.203125 41.984375 11.859375 
Q 46.1875 17.53125 46.1875 27.296875 
Q 46.1875 37.015625 41.984375 42.703125 
Q 37.796875 48.390625 30.609375 48.390625 
z
M 30.609375 56 
Q 42.328125 56 49.015625 48.375 
Q 55.71875 40.765625 55.71875 27.296875 
Q 55.71875 13.875 49.015625 6.21875 
Q 42.328125 -1.421875 30.609375 -1.421875 
Q 18.84375 -1.421875 12.171875 6.21875 
Q 5.515625 13.875 5.515625 27.296875 
Q 5.515625 40.765625 12.171875 48.375 
Q 18.84375 56 30.609375 56 
z
" id="DejaVuSans-111"/>
       <path d="M 48.78125 52.59375 
L 48.78125 44.1875 
Q 44.96875 46.296875 41.140625 47.34375 
Q 37.3125 48.390625 33.40625 48.390625 
Q 24.65625 48.390625 19.8125 42.84375 
Q 14.984375 37.3125 14.984375 27.296875 
Q 14.984375 17.28125 19.8125 11.734375 
Q 24.65625 6.203125 33.40625 6.203125 
Q 37.3125 6.203125 41.140625 7.25 
Q 44.96875 8.296875 48.78125 10.40625 
L 48.78125 2.09375 
Q 45.015625 0.34375 40.984375 -0.53125 
Q 36.96875 -1.421875 32.421875 -1.421875 
Q 20.0625 -1.421875 12.78125 6.34375 
Q 5.515625 14.109375 5.515625 27.296875 
Q 5.515625 40.671875 12.859375 48.328125 
Q 20.21875 56 33.015625 56 
Q 37.15625 56 41.109375 55.140625 
Q 45.0625 54.296875 48.78125 52.59375 
z
" id="DejaVuSans-99"/>
       <path d="M 9.078125 75.984375 
L 18.109375 75.984375 
L 18.109375 31.109375 
L 44.921875 54.6875 
L 56.390625 54.6875 
L 27.390625 29.109375 
L 57.625 0 
L 45.90625 0 
L 18.109375 26.703125 
L 18.109375 0 
L 9.078125 0 
z
" id="DejaVuSans-107"/>
       <path id="DejaVuSans-32"/>
       <path d="M 18.109375 8.203125 
L 18.109375 -20.796875 
L 9.078125 -20.796875 
L 9.078125 54.6875 
L 18.109375 54.6875 
L 18.109375 46.390625 
Q 20.953125 51.265625 25.265625 53.625 
Q 29.59375 56 35.59375 56 
Q 45.5625 56 51.78125 48.09375 
Q 58.015625 40.1875 58.015625 27.296875 
Q 58.015625 14.40625 51.78125 6.484375 
Q 45.5625 -1.421875 35.59375 -1.421875 
Q 29.59375 -1.421875 25.265625 0.953125 
Q 20.953125 3.328125 18.109375 8.203125 
z
M 48.6875 27.296875 
Q 48.6875 37.203125 44.609375 42.84375 
Q 40.53125 48.484375 33.40625 48.484375 
Q 26.265625 48.484375 22.1875 42.84375 
Q 18.109375 37.203125 18.109375 27.296875 
Q 18.109375 17.390625 22.1875 11.75 
Q 26.265625 6.109375 33.40625 6.109375 
Q 40.53125 6.109375 44.609375 11.75 
Q 48.6875 17.390625 48.6875 27.296875 
z
" id="DejaVuSans-112"/>
       <path d="M 41.109375 46.296875 
Q 39.59375 47.171875 37.8125 47.578125 
Q 36.03125 48 33.890625 48 
Q 26.265625 48 22.1875 43.046875 
Q 18.109375 38.09375 18.109375 28.8125 
L 18.109375 0 
L 9.078125 0 
L 9.078125 54.6875 
L 18.109375 54.6875 
L 18.109375 46.1875 
Q 20.953125 51.171875 25.484375 53.578125 
Q 30.03125 56 36.53125 56 
Q 37.453125 56 38.578125 55.875 
Q 39.703125 55.765625 41.0625 55.515625 
z
" id="DejaVuSans-114"/>
       <path d="M 9.421875 54.6875 
L 18.40625 54.6875 
L 18.40625 0 
L 9.421875 0 
z
M 9.421875 75.984375 
L 18.40625 75.984375 
L 18.40625 64.59375 
L 9.421875 64.59375 
z
" id="DejaVuSans-105"/>
       <path d="M 54.890625 33.015625 
L 54.890625 0 
L 45.90625 0 
L 45.90625 32.71875 
Q 45.90625 40.484375 42.875 44.328125 
Q 39.84375 48.1875 33.796875 48.1875 
Q 26.515625 48.1875 22.3125 43.546875 
Q 18.109375 38.921875 18.109375 30.90625 
L 18.109375 0 
L 9.078125 0 
L 9.078125 54.6875 
L 18.109375 54.6875 
L 18.109375 46.1875 
Q 21.34375 51.125 25.703125 53.5625 
Q 30.078125 56 35.796875 56 
Q 45.21875 56 50.046875 50.171875 
Q 54.890625 44.34375 54.890625 33.015625 
z
" id="DejaVuSans-110"/>
      </defs>
      <use xlink:href="#DejaVuSans-115"/>
      <use x="52.099609" xlink:href="#DejaVuSans-116"/>
      <use x="91.308594" xlink:href="#DejaVuSans-111"/>
      <use x="152.490234" xlink:href="#DejaVuSans-99"/>
      <use x="207.470703" xlink:href="#DejaVuSans-107"/>
      <use x="265.380859" xlink:href="#DejaVuSans-32"/>
      <use x="297.167969" xlink:href="#DejaVuSans-112"/>
      <use x="360.644531" xlink:href="#DejaVuSans-114"/>
      <use x="401.757812" xlink:href="#DejaVuSans-105"/>
      <use x="429.541016" xlink:href="#DejaVuSans-99"/>
      <use x="484.521484" xlink:href="#DejaVuSans-101"/>
      <use x="546.044922" xlink:href="#DejaVuSans-32"/>
      <use x="577.832031" xlink:href="#DejaVuSans-45"/>
      <use x="613.916016" xlink:href="#DejaVuSans-32"/>
      <use x="645.703125" xlink:href="#DejaVuSans-111"/>
      <use x="706.884766" xlink:href="#DejaVuSans-112"/>
      <use x="770.361328" xlink:href="#DejaVuSans-101"/>
      <use x="831.884766" xlink:href="#DejaVuSans-110"/>
     </g>
    </g>
   </g>
   <g id="line2d_18">
    <path clip-path="url(#p4f19ab0733)" d="M 53.883182 223.04792 
L 54.36099 228.354801 
L 54.838798 228.087267 
L 56.272221 226.058882 
L 56.750029 225.640558 
L 57.227837 224.799047 
L 57.705645 224.210472 
L 58.183453 224.025629 
L 60.094685 225.295194 
L 60.572493 223.928345 
L 61.0503 223.383554 
L 61.528108 221.778355 
L 63.43934 222.308555 
L 63.917148 223.407876 
L 64.394956 223.42733 
L 64.872764 222.760932 
L 66.306187 222.610142 
L 66.783995 222.386384 
L 67.261803 218.981421 
L 67.739611 217.590249 
L 68.217419 217.176787 
L 69.650843 216.957898 
L 70.128651 214.306892 
L 70.606459 213.436197 
L 71.084266 214.53065 
L 71.562074 216.189348 
L 72.995498 215.187317 
L 73.473306 215.649417 
L 73.951114 215.021935 
L 74.428922 215.839122 
L 74.90673 215.090034 
L 76.817961 215.839122 
L 77.295769 215.119218 
L 77.773577 214.822499 
L 78.251385 214.929513 
L 79.684809 213.67454 
L 80.640425 214.13664 
L 81.118232 213.59671 
L 81.59604 213.616171 
L 83.507272 212.808707 
L 83.98508 213.426466 
L 84.462888 213.815607 
L 84.940696 215.542404 
L 86.374119 213.027596 
L 86.851927 210.833829 
L 87.329735 209.739376 
L 87.807543 208.936781 
L 88.285351 208.474673 
L 89.718775 208.012572 
L 90.196583 206.772191 
L 90.674391 207.803413 
L 91.152199 205.959865 
L 91.630006 203.372096 
L 93.06343 205.235099 
L 93.541238 205.162131 
L 94.019046 206.577624 
L 94.496854 206.480341 
L 94.974662 206.052286 
L 96.408085 205.171861 
L 96.885893 205.439396 
L 97.363701 204.388719 
L 98.319317 202.832166 
L 99.752741 202.846758 
L 100.230549 200.949702 
L 100.708357 201.747444 
L 101.186165 200.691899 
L 101.663972 201.494502 
L 103.097396 201.796082 
L 103.575204 201.368027 
L 104.053012 201.329119 
L 104.53082 199.587723 
L 106.442052 199.728782 
L 106.919859 198.950509 
L 107.397667 197.525285 
L 107.875475 197.783089 
L 108.353283 198.72189 
L 109.786707 198.965102 
L 110.264515 199.616907 
L 110.742323 196.299496 
L 111.220131 196.318957 
L 111.697938 195.808211 
L 113.131362 199.018608 
L 113.60917 198.24519 
L 114.086978 200.18116 
L 114.564786 200.910795 
L 115.042594 202.360335 
L 116.476018 207.083501 
L 116.953825 207.715853 
L 117.431633 207.783952 
L 117.909441 206.013372 
L 118.387249 207.462919 
L 119.820673 209.121617 
L 120.298481 208.294698 
L 120.776289 208.567094 
L 121.254097 210.931112 
L 121.731905 210.736546 
L 123.643136 211.359167 
L 124.120944 212.575226 
L 124.598752 211.830998 
L 125.07656 212.667647 
L 126.987791 213.051918 
L 127.465599 208.751938 
L 127.943407 209.335644 
L 128.421215 207.667215 
L 129.854639 205.08917 
L 130.332447 203.605577 
L 130.810255 204.048224 
L 131.288063 203.683407 
L 131.765871 205.215637 
L 133.199294 204.55897 
L 134.15491 201.26102 
L 134.632718 200.925387 
L 135.110526 201.689068 
L 137.021758 201.86905 
L 137.499565 202.190083 
L 137.977373 200.964302 
L 138.455181 201.747444 
L 139.888605 199.5634 
L 140.366413 200.419503 
L 140.844221 199.509893 
L 141.799837 199.47584 
L 143.23326 200.71136 
L 143.711068 201.494502 
L 144.188876 200.205475 
L 144.666684 199.495301 
L 145.144492 199.913626 
L 147.055724 198.87268 
L 147.533531 199.135345 
L 148.011339 199.159668 
L 148.489147 198.288973 
L 149.922571 199.329919 
L 150.400379 196.990216 
L 150.878187 197.374495 
L 151.355995 196.781058 
L 151.833803 197.466917 
L 153.745034 196.844295 
L 154.222842 193.11829 
L 154.70065 194.344079 
L 155.178458 198.415441 
L 156.611882 202.08307 
L 157.08969 202.900265 
L 157.567498 203.338043 
L 158.045305 201.008078 
L 158.523113 200.47301 
L 159.956537 201.290205 
L 160.434345 200.609208 
L 160.912153 199.568262 
L 161.389961 199.422333 
L 161.867769 199.02347 
L 163.301192 195.939548 
L 163.779 195.813073 
L 164.256808 194.786719 
L 164.734616 194.689436 
L 165.212424 196.518393 
L 166.645848 198.25492 
L 167.123656 197.282073 
L 167.601464 199.111023 
L 168.079271 196.970763 
L 168.557079 196.163298 
L 170.468311 197.977663 
L 170.946119 197.02427 
L 171.423927 195.268281 
L 171.901735 194.271111 
L 173.335158 193.88684 
L 173.812966 194.363533 
L 174.290774 192.315687 
L 174.768582 189.04206 
L 175.24639 191.376894 
L 176.679814 192.481077 
L 177.157622 191.396348 
L 178.113237 190.399186 
L 178.591045 190.705627 
L 180.024469 191.88764 
L 180.502277 190.875878 
L 180.980085 192.082206 
L 181.457893 191.376894 
L 181.935701 191.114229 
L 183.369124 190.939116 
L 183.846932 188.910724 
L 184.32474 189.88844 
L 184.802548 192.140582 
L 185.280356 188.633466 
L 186.71378 188.327017 
L 187.191588 188.545906 
L 188.147204 187.51956 
L 188.625011 185.077713 
L 190.058435 184.129189 
L 190.536243 183.404415 
L 191.014051 184.873416 
L 191.491859 184.036767 
L 191.969667 184.279979 
L 193.40309 182.854754 
L 193.880898 181.084173 
L 194.358706 180.626934 
L 194.836514 179.45466 
L 195.314322 180.111327 
L 197.225554 177.285208 
L 197.703362 179.333054 
L 200.092401 173.218716 
L 201.048017 173.491112 
L 201.525825 172.532857 
L 202.003633 172.557172 
L 203.437057 172.746884 
L 203.914864 171.166008 
L 204.392672 171.370298 
L 204.87048 170.095871 
L 205.348288 170.129924 
L 206.781712 169.098709 
L 207.25952 168.077217 
L 208.215136 170.125055 
L 208.692943 170.660124 
L 210.126367 170.601756 
L 210.604175 168.544179 
L 211.081983 169.205723 
L 212.037599 168.709561 
L 213.471023 168.383666 
L 213.94883 172.742015 
L 214.904446 170.07641 
L 215.382254 168.281507 
L 216.815678 167.055725 
L 217.293486 167.736715 
L 217.771294 167.63457 
L 218.249102 168.135585 
L 218.72691 166.345551 
L 220.160333 163.650761 
L 220.638141 162.40065 
L 221.115949 162.288782 
L 221.593757 162.434703 
L 222.071565 161.106762 
L 223.504989 161.933687 
L 223.982796 159.910164 
L 224.938412 159.846927 
L 225.41622 156.782466 
L 226.849644 157.58993 
L 227.327452 157.361311 
L 228.283068 154.29198 
L 228.760876 153.849333 
L 230.194299 155.483709 
L 230.672107 152.540853 
L 231.149915 153.844464 
L 231.627723 148.941323 
L 232.105531 147.306933 
L 233.538955 146.801048 
L 234.016763 144.339747 
L 234.49457 146.698904 
L 234.972378 145.852532 
L 235.450186 144.548921 
L 237.361418 144.101405 
L 237.839226 143.425284 
L 238.317034 143.74631 
L 238.794842 142.61295 
L 240.228265 147.569606 
L 240.706073 146.334086 
L 241.183881 140.569966 
L 241.661689 142.471883 
L 242.139497 142.282186 
L 243.572921 150.371409 
L 244.050729 145.015883 
L 244.528536 141.022351 
L 245.006344 141.484444 
L 245.484152 141.581735 
L 246.917576 145.565544 
L 247.395384 140.983429 
L 247.873192 142.019513 
L 248.351 140.696441 
L 248.828808 140.428914 
L 250.740039 144.991568 
L 251.217847 142.734556 
L 251.695655 141.45526 
L 252.173463 143.405823 
L 253.606887 153.795819 
L 254.084695 152.000915 
L 254.562502 159.015147 
L 255.04031 161.656423 
L 255.518118 173.252754 
L 256.951542 161.082446 
L 257.42935 150.677843 
L 257.907158 154.19469 
L 258.384966 154.642206 
L 258.862774 161.218644 
L 260.296197 170.095871 
L 260.774005 163.582655 
L 261.251813 163.461049 
L 261.729621 173.894836 
L 262.207429 169.541341 
L 263.640853 180.699902 
L 264.118661 177.995389 
L 264.596469 181.760302 
L 265.074276 178.053758 
L 265.552084 178.15591 
L 266.985508 187.446592 
L 267.463316 183.419007 
L 267.941124 176.419375 
L 268.418932 178.476944 
L 268.89674 175.446528 
L 270.330163 176.424237 
L 270.807971 174.060219 
L 271.285779 178.486674 
L 271.763587 181.483044 
L 272.241395 180.286439 
L 273.674819 176.346414 
L 274.152627 166.666592 
L 274.630435 170.587163 
L 275.108242 167.688069 
L 277.019474 167.877782 
L 277.497282 162.191491 
L 277.97509 161.024078 
L 278.452898 158.601684 
L 278.930706 159.910164 
L 280.364129 163.188653 
L 280.841937 164.000987 
L 281.319745 165.299744 
L 281.797553 164.200422 
L 282.275361 163.553471 
L 283.708785 161.315935 
L 284.186593 159.720467 
L 284.664401 159.890703 
L 285.142209 157.346719 
L 285.620016 159.151345 
L 287.05344 157.730982 
L 288.009056 152.239273 
L 288.964672 149.719589 
L 290.398095 148.522991 
L 290.875903 143.790101 
L 291.353711 146.552983 
L 291.831519 150.269249 
L 292.309327 152.292772 
L 293.742751 146.056821 
L 295.176175 143.386362 
L 295.653982 144.792132 
L 297.565214 141.032074 
L 298.043022 144.612143 
L 298.52083 144.305709 
L 298.998638 143.099374 
L 300.432062 143.829009 
L 300.909869 142.369739 
L 301.387677 140.467821 
L 301.865485 140.59915 
L 302.343293 141.105035 
L 304.254525 136.829369 
L 304.732333 129.163347 
L 305.210141 128.477488 
L 305.687948 130.71017 
L 307.121372 136.289446 
L 307.59918 127.431681 
L 308.076988 125.636777 
L 308.554796 127.455996 
L 309.032604 125.884843 
L 310.466028 127.490049 
L 310.943835 121.331927 
L 311.421643 120.845504 
L 311.899451 122.937119 
L 312.377259 121.132492 
L 313.810683 126.560979 
L 314.288491 123.238714 
L 314.766299 120.787136 
L 315.244107 119.459194 
L 317.155338 118.413387 
L 317.633146 115.781835 
L 318.110954 115.144621 
L 318.588762 111.092721 
L 319.06657 112.897348 
L 320.499994 109.142159 
L 320.977801 113.860471 
L 321.455609 105.78584 
L 321.933417 110.509007 
L 322.411225 109.682082 
L 323.844649 110.791126 
L 324.322457 105.430746 
L 324.800265 110.256072 
L 325.278073 109.662635 
L 325.755881 121.356243 
L 327.189304 116.0591 
L 327.667112 114.779804 
L 328.14492 115.98127 
L 328.622728 115.130029 
L 329.100536 98.207356 
L 330.53396 87.866005 
L 331.011768 86.05164 
L 331.489575 85.57494 
L 331.967383 83.575747 
L 332.445191 78.127799 
L 333.878615 79.304951 
L 334.356423 80.530732 
L 334.834231 83.395773 
L 335.312039 75.744328 
L 337.22327 72.567984 
L 337.701078 75.895118 
L 338.178886 72.723643 
L 338.656694 73.176013 
L 339.134502 66.341771 
L 340.567926 47.984157 
L 341.045734 55.766916 
L 341.523541 52.882429 
L 342.001349 51.009696 
L 342.479157 53.208339 
L 343.912581 50.158455 
L 344.868197 30.682074 
L 345.346005 51.462066 
L 345.823813 64.770618 
L 347.735044 76.678267 
L 348.69066 64.206365 
L 349.168468 75.471932 
L 350.601892 75.180075 
L 351.0797 68.15612 
L 351.557507 74.187767 
L 352.035315 84.908543 
L 352.513123 83.58547 
L 353.946547 94.987236 
L 354.424355 79.149292 
L 354.902163 81.211722 
L 355.379971 93.761454 
L 355.857779 87.418489 
L 357.291202 74.615822 
L 357.76901 75.510839 
L 358.246818 76.989571 
L 358.246818 76.989571 
" style="fill:none;stroke:#1f77b4;stroke-linecap:square;stroke-width:1.5;"/>
   </g>
   <g id="line2d_19">
    <path clip-path="url(#p4f19ab0733)" d="M 53.883182 104.580231 
L 54.36099 102.701761 
L 54.838798 104.295614 
L 56.750029 94.379541 
L 57.227837 89.341803 
L 57.705645 87.321007 
L 58.183453 86.154081 
L 59.616877 86.358997 
L 60.094685 84.195909 
L 60.572493 83.911292 
L 61.0503 84.907454 
L 61.528108 77.433389 
L 63.43934 78.01402 
L 63.917148 78.554783 
L 64.394956 80.26249 
L 64.872764 78.224634 
L 66.306187 79.272026 
L 66.783995 77.894468 
L 67.261803 64.044976 
L 67.739611 64.181587 
L 68.217419 64.779295 
L 69.650843 63.151272 
L 70.606459 50.320699 
L 71.084266 52.358572 
L 71.562074 56.872605 
L 72.995498 52.261794 
L 73.473306 52.887957 
L 73.951114 49.745783 
L 74.428922 51.789336 
L 74.90673 49.76854 
L 76.817961 48.049455 
L 77.295769 47.1159 
L 77.773577 44.58851 
L 78.251385 45.658659 
L 79.684809 41.224327 
L 80.162617 42.072482 
L 80.640425 41.406469 
L 81.118232 34.843184 
L 81.59604 30.682074 
L 83.029464 32.270246 
L 83.507272 39.20353 
L 83.98508 39.966304 
L 84.940696 47.326532 
L 86.374119 73.226747 
L 86.851927 65.576221 
L 87.329735 69.151019 
L 88.285351 73.44874 
L 89.718775 73.94967 
L 90.196583 73.300733 
L 90.674391 71.274256 
L 91.152199 71.649954 
L 91.630006 74.63844 
L 93.06343 76.795848 
L 93.541238 70.773344 
L 94.019046 72.873807 
L 94.496854 70.192712 
L 94.974662 70.238261 
L 96.885893 63.418813 
L 97.363701 62.74712 
L 97.841509 64.8476 
L 98.319317 57.971225 
L 100.230549 73.784587 
L 100.708357 74.86045 
L 101.186165 77.01216 
L 101.663972 70.676566 
L 103.097396 70.135785 
L 103.575204 70.243942 
L 104.053012 65.923446 
L 104.53082 69.669025 
L 106.442052 70.710719 
L 106.919859 70.796101 
L 107.397667 69.458394 
L 107.875475 70.528559 
L 108.353283 66.042981 
L 109.786707 69.116866 
L 110.264515 68.541933 
L 110.742323 69.094092 
L 111.220131 70.818875 
L 111.697938 70.488726 
L 113.131362 75.156447 
L 113.60917 76.038772 
L 114.086978 80.911427 
L 115.042594 84.269913 
L 116.476018 88.459478 
L 116.953825 91.083662 
L 117.431633 91.140589 
L 117.909441 86.108532 
L 118.387249 84.480527 
L 119.820673 83.626674 
L 120.298481 80.76342 
L 120.776289 81.224499 
L 121.254097 87.656854 
L 121.731905 82.488203 
L 123.643136 82.32312 
L 124.598752 85.33438 
L 125.07656 87.696704 
L 126.509984 92.051352 
L 127.465599 87.48609 
L 127.943407 86.370393 
L 128.421215 84.025146 
L 129.854639 81.918967 
L 130.332447 82.249116 
L 130.810255 85.903616 
L 131.288063 86.899778 
L 131.765871 86.472851 
L 133.199294 86.119928 
L 133.677102 81.002506 
L 134.15491 70.875802 
L 134.632718 72.241964 
L 135.110526 71.450718 
L 136.54395 72.270419 
L 137.021758 71.245802 
L 138.455181 77.410614 
L 139.888605 76.864153 
L 140.366413 82.129582 
L 140.844221 82.772821 
L 141.799837 83.057438 
L 143.711068 85.875161 
L 144.188876 82.778518 
L 144.666684 83.842986 
L 145.144492 79.642025 
L 146.577916 79.357408 
L 147.055724 78.924783 
L 147.533531 78.076628 
L 148.011339 75.315832 
L 148.489147 73.568275 
L 149.922571 69.999174 
L 150.400379 71.519041 
L 150.878187 73.790285 
L 151.355995 81.816509 
L 151.833803 87.497468 
L 153.267226 88.186256 
L 153.745034 91.117815 
L 154.222842 86.193931 
L 155.178458 94.123378 
L 156.611882 95.318776 
L 157.08969 94.447846 
L 157.567498 97.516017 
L 158.523113 94.407996 
L 159.956537 94.624308 
L 160.434345 95.683078 
L 160.912153 97.658326 
L 161.389961 100.703739 
L 161.867769 96.593858 
L 163.301192 94.33969 
L 163.779 95.313078 
L 164.256808 93.599674 
L 164.734616 89.643497 
L 165.212424 82.288967 
L 166.645848 76.773073 
L 167.601464 83.450212 
L 168.079271 77.450465 
L 168.557079 77.154469 
L 170.468311 82.994831 
L 170.946119 80.962656 
L 171.423927 79.562324 
L 171.901735 78.725564 
L 173.335158 80.791875 
L 173.812966 80.211261 
L 174.290774 74.666913 
L 174.768582 66.145456 
L 175.24639 69.743011 
L 177.157622 69.162398 
L 177.63543 66.4073 
L 178.113237 64.762201 
L 178.591045 65.917766 
L 180.024469 70.187032 
L 180.502277 68.519159 
L 180.980085 65.462367 
L 181.457893 64.21574 
L 181.935701 63.595275 
L 183.846932 67.289608 
L 184.32474 72.896581 
L 184.802548 76.107078 
L 185.280356 72.66889 
L 186.71378 71.638575 
L 187.191588 73.35198 
L 187.669396 70.534257 
L 188.147204 71.843492 
L 188.625011 72.241964 
L 190.058435 71.530419 
L 190.536243 72.48105 
L 191.014051 73.824438 
L 191.491859 72.572113 
L 191.969667 74.518906 
L 193.40309 95.073991 
L 193.880898 93.263827 
L 194.358706 88.180558 
L 194.836514 90.059028 
L 195.314322 89.36456 
L 196.747746 90.172882 
L 197.225554 90.918579 
L 197.703362 87.252701 
L 198.18117 88.351322 
L 198.658977 90.690889 
L 200.092401 87.349479 
L 200.570209 82.357272 
L 201.048017 80.290962 
L 201.525825 81.850662 
L 202.003633 81.691277 
L 203.437057 85.880842 
L 203.914864 75.947692 
L 204.392672 78.577558 
L 204.87048 77.877392 
L 205.348288 73.94967 
L 206.781712 72.999039 
L 207.25952 71.951648 
L 207.737328 76.226612 
L 208.215136 74.091979 
L 208.692943 74.934454 
L 210.604175 71.866266 
L 211.081983 73.972444 
L 212.037599 75.372759 
L 213.471023 75.611846 
L 213.94883 84.14468 
L 214.426638 82.658967 
L 214.904446 85.209148 
L 215.382254 86.620858 
L 216.815678 83.814514 
L 217.293486 85.248998 
L 217.771294 89.831337 
L 218.249102 86.330542 
L 218.72691 87.440559 
L 220.638141 101.238822 
L 221.115949 97.447711 
L 221.593757 95.068311 
L 222.071565 94.089225 
L 223.504989 92.876751 
L 223.982796 91.305655 
L 224.938412 95.182148 
L 225.41622 96.605236 
L 226.849644 96.434473 
L 227.327452 99.331879 
L 228.283068 97.544489 
L 228.760876 96.360469 
L 230.194299 97.117562 
L 230.672107 94.294142 
L 231.149915 95.352929 
L 231.627723 93.901368 
L 232.105531 93.554142 
L 233.538955 95.352929 
L 234.016763 96.286466 
L 234.49457 95.381384 
L 234.972378 96.1214 
L 235.450186 95.358609 
L 237.361418 100.93143 
L 237.839226 108.206259 
L 238.317034 108.957654 
L 238.794842 101.272974 
L 240.228265 104.568853 
L 240.706073 103.521462 
L 241.183881 99.935268 
L 241.661689 102.126828 
L 242.139497 101.415283 
L 243.572921 103.12299 
L 244.050729 103.390531 
L 244.528536 102.126828 
L 245.484152 90.816121 
L 246.917576 92.609209 
L 247.395384 86.677768 
L 247.873192 87.372236 
L 248.828808 89.717501 
L 251.217847 92.096901 
L 251.695655 92.000123 
L 252.173463 94.413694 
L 253.606887 102.411445 
L 254.084695 103.40191 
L 254.562502 109.811507 
L 255.04031 113.585541 
L 255.518118 126.279486 
L 256.951542 125.442709 
L 257.42935 118.35004 
L 258.384966 127.577342 
L 258.862774 140.151761 
L 260.296197 149.088757 
L 260.774005 149.657992 
L 261.251813 157.632979 
L 261.729621 193.187432 
L 262.207429 184.96767 
L 263.640853 199.511639 
L 264.118661 209.137414 
L 264.596469 227.722949 
L 265.074276 228.326338 
L 265.552084 227.728643 
L 266.985508 228.354801 
L 267.463316 214.16376 
L 267.941124 196.392231 
L 268.418932 186.493226 
L 268.89674 186.6583 
L 270.330163 197.012696 
L 270.807971 196.335304 
L 271.285779 205.494301 
L 271.763587 211.414356 
L 272.241395 213.412369 
L 273.674819 208.460022 
L 274.152627 192.350655 
L 274.630435 200.598881 
L 275.108242 196.500378 
L 277.019474 196.050686 
L 277.497282 198.891174 
L 277.97509 205.443072 
L 278.452898 204.042749 
L 278.930706 199.517328 
L 280.364129 200.769645 
L 280.841937 205.437383 
L 281.319745 204.634759 
L 281.797553 206.866161 
L 282.275361 206.581543 
L 283.708785 210.583268 
L 284.664401 205.966768 
L 285.142209 206.200156 
L 285.620016 203.035208 
L 287.05344 212.205588 
L 287.531248 208.926791 
L 288.009056 212.956979 
L 288.486864 214.658996 
L 288.964672 209.103252 
L 290.398095 210.042496 
L 290.875903 210.725577 
L 291.353711 213.412369 
L 291.831519 216.839165 
L 292.309327 217.209169 
L 293.742751 212.740671 
L 294.220559 206.581543 
L 294.698367 208.704789 
L 295.653982 204.298912 
L 297.565214 201.908116 
L 298.043022 199.671024 
L 298.52083 195.709141 
L 298.998638 201.856887 
L 300.432062 201.771505 
L 300.909869 196.904539 
L 301.387677 195.139906 
L 302.343293 167.873529 
L 303.776717 157.661442 
L 304.254525 158.116832 
L 304.732333 164.361347 
L 305.210141 182.474416 
L 305.687948 178.034386 
L 307.121372 183.709665 
L 307.59918 166.649676 
L 308.076988 173.839114 
L 308.554796 177.413913 
L 309.032604 171.915104 
L 310.466028 179.508704 
L 310.943835 176.810524 
L 311.421643 180.049476 
L 311.899451 187.870775 
L 312.377259 185.849987 
L 313.810683 181.535181 
L 314.288491 177.539145 
L 314.766299 178.757309 
L 317.155338 179.531469 
L 317.633146 179.218388 
L 318.110954 182.645188 
L 318.588762 182.292265 
L 319.06657 186.829073 
L 320.499994 181.990571 
L 320.977801 183.812123 
L 321.455609 178.950855 
L 321.933417 179.645315 
L 322.411225 183.009499 
L 323.844649 184.87659 
L 324.322457 182.99812 
L 324.800265 184.136591 
L 325.278073 183.242887 
L 325.755881 184.563518 
L 327.189304 185.980909 
L 327.667112 188.650625 
L 328.14492 186.145992 
L 328.622728 191.849725 
L 329.100536 192.60681 
L 330.53396 195.475761 
L 331.011768 190.853563 
L 331.489575 189.162933 
L 331.967383 186.20291 
L 332.445191 186.942918 
L 333.878615 187.022611 
L 334.356423 179.537167 
L 334.834231 179.821785 
L 335.312039 185.736142 
L 335.789847 186.037836 
L 337.22327 183.106268 
L 337.701078 186.652611 
L 338.656694 188.627859 
L 339.134502 188.736006 
L 340.567926 188.491239 
L 341.045734 181.842564 
L 341.523541 185.633675 
L 342.001349 185.115668 
L 342.479157 184.887978 
L 343.912581 185.14983 
L 344.390389 187.39261 
L 345.346005 184.950594 
L 345.823813 187.051074 
L 347.735044 190.187559 
L 348.212852 192.572657 
L 348.69066 192.942657 
L 349.168468 194.627597 
L 350.601892 192.492964 
L 351.0797 189.703714 
L 351.557507 192.379119 
L 352.035315 190.853563 
L 352.513123 190.267251 
L 353.946547 194.724366 
L 354.424355 195.304989 
L 354.902163 195.008984 
L 355.379971 199.016407 
L 355.857779 200.97457 
L 357.76901 190.773871 
L 358.246818 190.927567 
L 358.246818 190.927567 
" style="fill:none;stroke:#ff7f0e;stroke-linecap:square;stroke-width:1.5;"/>
   </g>
   <g id="line2d_20">
    <path clip-path="url(#p4f19ab0733)" d="M 53.883182 160.172874 
L 54.36099 159.075481 
L 54.838798 160.634917 
L 56.272221 154.945867 
L 56.750029 149.487849 
L 57.227837 149.487849 
L 58.183453 148.390478 
L 59.616877 149.92103 
L 60.094685 148.043929 
L 61.0503 152.606723 
L 61.528108 149.314586 
L 63.43934 152.895503 
L 63.917148 151.249434 
L 64.394956 151.798131 
L 64.872764 150.440842 
L 66.306187 152.491207 
L 66.783995 152.808871 
L 67.261803 153.819611 
L 67.739611 154.397192 
L 68.217419 148.996922 
L 69.650843 150.614106 
L 70.128651 148.852543 
L 70.606459 143.567789 
L 71.084266 151.65373 
L 71.562074 153.357568 
L 72.995498 149.574503 
L 73.473306 154.079528 
L 73.951114 156.880737 
L 74.428922 155.119153 
L 74.90673 150.64299 
L 76.817961 146.282344 
L 77.295769 144.289749 
L 77.773577 144.867308 
L 78.251385 141.315276 
L 79.684809 138.456298 
L 80.162617 144.145348 
L 80.640425 145.733669 
L 81.118232 146.311229 
L 81.59604 144.722929 
L 83.029464 141.92172 
L 83.98508 143.134608 
L 84.462888 140.679948 
L 84.940696 144.694045 
L 86.374119 143.019092 
L 86.851927 141.055359 
L 87.329735 140.708832 
L 87.807543 142.788059 
L 88.285351 141.690688 
L 89.718775 145.935817 
L 90.196583 146.16685 
L 90.674391 153.790748 
L 91.152199 154.397192 
L 91.630006 159.508661 
L 93.06343 159.046618 
L 93.541238 159.306513 
L 94.019046 153.386452 
L 94.496854 152.953272 
L 94.974662 150.180947 
L 96.408085 150.094315 
L 96.885893 145.589269 
L 97.363701 146.88881 
L 97.841509 145.329373 
L 98.319317 140.333399 
L 99.752741 140.246767 
L 100.230549 138.485182 
L 100.708357 132.796132 
L 101.186165 132.362952 
L 101.663972 102.96473 
L 103.097396 93.896911 
L 103.575204 91.875431 
L 104.053012 97.477849 
L 104.53082 91.817662 
L 106.442052 91.442272 
L 106.919859 87.139374 
L 107.397667 87.947965 
L 107.875475 81.450323 
L 108.353283 71.804945 
L 109.786707 61.726364 
L 110.264515 70.592057 
L 110.742323 75.299208 
L 111.220131 81.392554 
L 111.697938 81.854619 
L 113.131362 89.594056 
L 113.60917 81.479186 
L 114.086978 86.821709 
L 114.564786 82.403316 
L 115.042594 88.236767 
L 116.476018 92.597391 
L 116.953825 86.76394 
L 117.431633 89.565149 
L 117.909441 81.652493 
L 118.387249 84.626966 
L 119.820673 84.655829 
L 120.298481 83.731698 
L 120.776289 85.897579 
L 121.254097 89.103084 
L 121.731905 87.976828 
L 123.643136 87.659164 
L 124.120944 91.268965 
L 124.598752 91.499998 
L 125.07656 94.156806 
L 126.509984 91.095702 
L 126.987791 86.96611 
L 127.465599 81.305922 
L 128.421215 74.981544 
L 129.854639 71.285111 
L 130.332447 75.01045 
L 130.810255 82.230053 
L 131.288063 73.970826 
L 131.765871 62.13066 
L 133.199294 65.711599 
L 133.677102 62.303924 
L 134.15491 69.465801 
L 134.632718 62.33283 
L 135.110526 62.419462 
L 136.54395 67.704216 
L 137.021758 70.880815 
L 137.499565 67.011118 
L 137.977373 65.162902 
L 138.455181 69.754559 
L 139.888605 66.751223 
L 140.366413 64.007783 
L 140.844221 60.253581 
L 141.799837 63.950014 
L 143.23326 61.755271 
L 143.711068 67.87748 
L 144.188876 61.119942 
L 144.666684 56.470517 
L 145.144492 56.066221 
L 146.577916 53.236105 
L 147.055724 54.333498 
L 147.533531 54.766657 
L 148.011339 60.946635 
L 148.489147 61.581963 
L 149.922571 64.440942 
L 150.400379 63.285823 
L 150.878187 64.007783 
L 151.355995 64.007783 
L 151.833803 57.250202 
L 153.267226 51.907723 
L 153.745034 51.416795 
L 154.222842 53.640401 
L 154.70065 58.405365 
L 155.178458 65.191765 
L 156.611882 70.534288 
L 157.08969 66.866718 
L 157.567498 82.692118 
L 158.045305 74.115227 
L 158.523113 76.425464 
L 159.956537 75.819042 
L 160.434345 82.489948 
L 160.912153 82.316684 
L 161.389961 86.821709 
L 161.867769 85.32002 
L 163.301192 77.320732 
L 163.779 87.312637 
L 164.256808 83.616204 
L 164.734616 79.024547 
L 165.212424 81.017165 
L 166.645848 84.829092 
L 167.123656 80.266298 
L 167.601464 85.204525 
L 168.079271 73.479898 
L 168.557079 72.98897 
L 170.468311 78.53362 
L 170.946119 77.465089 
L 171.423927 71.169617 
L 171.901735 70.563151 
L 173.335158 69.263631 
L 173.812966 73.479898 
L 174.290774 80.872764 
L 175.24639 74.259583 
L 177.157622 80.179666 
L 178.113237 76.714266 
L 178.591045 88.178998 
L 180.024469 91.182333 
L 180.502277 85.348926 
L 180.980085 91.759937 
L 181.457893 87.861334 
L 181.935701 96.640351 
L 183.369124 95.918391 
L 183.846932 94.618871 
L 184.32474 101.232052 
L 185.280356 100.712217 
L 186.71378 96.149423 
L 187.191588 97.217954 
L 187.669396 99.528192 
L 188.147204 99.181665 
L 188.625011 96.062792 
L 190.058435 96.553719 
L 190.536243 96.90029 
L 191.014051 97.62225 
L 191.491859 89.622919 
L 191.969667 90.084984 
L 193.40309 92.770655 
L 193.880898 87.832471 
L 194.358706 89.853951 
L 195.314322 95.485232 
L 196.747746 92.741792 
L 197.703362 97.824376 
L 198.18117 98.286441 
L 198.658977 94.070174 
L 200.092401 85.031262 
L 201.048017 92.308589 
L 201.525825 90.142709 
L 202.003633 67.415414 
L 203.437057 75.270345 
L 204.392672 72.151472 
L 204.87048 44.948015 
L 206.781712 54.333498 
L 207.25952 44.428225 
L 207.737328 44.68812 
L 208.215136 47.373791 
L 208.692943 47.22939 
L 210.126367 42.637734 
L 210.604175 34.118612 
L 211.081983 32.53029 
L 212.037599 34.898341 
L 213.471023 30.682074 
L 213.94883 45.698838 
L 214.426638 41.193813 
L 214.904446 42.955398 
L 215.382254 43.792897 
L 216.815678 45.06351 
L 217.293486 52.860715 
L 217.771294 46.7096 
L 218.249102 45.179048 
L 218.72691 46.594106 
L 220.160333 46.132041 
L 220.638141 44.659214 
L 221.115949 45.612206 
L 221.593757 50.203907 
L 222.071565 47.402698 
L 223.504989 50.983592 
L 223.982796 54.824426 
L 224.938412 52.456419 
L 225.41622 50.579296 
L 226.849644 51.445657 
L 227.327452 57.452372 
L 228.283068 52.774084 
L 228.760876 49.568578 
L 230.194299 52.052123 
L 230.672107 50.75256 
L 231.149915 52.19648 
L 231.627723 49.366408 
L 232.105531 52.745177 
L 233.538955 54.333498 
L 234.016763 58.203195 
L 234.49457 51.561152 
L 234.972378 53.351643 
L 235.450186 52.052123 
L 237.361418 55.806281 
L 237.839226 55.19986 
L 238.317034 57.654498 
L 238.794842 64.007783 
L 240.228265 80.006403 
L 240.706073 78.158186 
L 241.183881 72.093703 
L 241.661689 82.230053 
L 242.139497 72.671306 
L 243.572921 68.657209 
L 244.050729 52.19648 
L 244.528536 48.990975 
L 245.006344 62.506094 
L 245.484152 62.592725 
L 246.917576 65.07627 
L 247.395384 59.820379 
L 247.873192 64.181047 
L 248.351 64.671974 
L 248.828808 64.8741 
L 250.740039 70.880815 
L 251.217847 69.11923 
L 251.695655 63.343548 
L 252.173463 68.455039 
L 253.606887 88.554431 
L 254.084695 86.099749 
L 255.04031 126.356259 
L 255.518118 141.661803 
L 256.951542 128.319992 
L 257.42935 122.486541 
L 258.384966 134.875381 
L 258.862774 152.491207 
L 260.774005 160.172874 
L 261.251813 159.248766 
L 261.729621 190.437435 
L 262.207429 181.311869 
L 263.640853 207.244669 
L 264.118661 195.693305 
L 264.596469 219.402499 
L 265.074276 218.218473 
L 265.552084 195.14463 
L 266.985508 228.354801 
L 267.941124 181.658396 
L 268.418932 181.167468 
L 268.89674 182.264862 
L 270.330163 195.115745 
L 270.807971 182.929053 
L 271.285779 202.335348 
L 271.763587 200.313868 
L 272.241395 194.220522 
L 273.674819 191.47706 
L 274.152627 169.529473 
L 274.630435 182.033829 
L 275.108242 160.692686 
L 277.019474 169.962653 
L 277.497282 167.681256 
L 278.452898 173.370307 
L 278.930706 165.630892 
L 280.364129 173.225906 
L 280.841937 183.535497 
L 281.319745 178.366259 
L 281.797553 181.687281 
L 282.275361 178.424028 
L 283.708785 177.7887 
L 284.186593 158.180257 
L 284.664401 154.859235 
L 285.142209 156.303156 
L 285.620016 165.197711 
L 287.05344 177.759815 
L 287.531248 179.203736 
L 288.009056 179.290367 
L 288.486864 178.22188 
L 288.964672 157.429412 
L 290.398095 159.306513 
L 290.875903 157.40055 
L 291.353711 170.569097 
L 291.831519 177.846447 
L 293.742751 141.777319 
L 294.220559 139.957987 
L 294.698367 136.146038 
L 295.176175 127.713548 
L 295.653982 133.027165 
L 297.565214 122.77532 
L 298.043022 115.180307 
L 298.52083 121.187021 
L 298.998638 136.810229 
L 300.432062 133.72024 
L 300.909869 128.695403 
L 301.387677 125.836447 
L 301.865485 120.176281 
L 302.343293 107.585293 
L 303.776717 111.079578 
L 304.254525 109.549026 
L 304.732333 114.198451 
L 305.210141 132.738385 
L 305.687948 139.755839 
L 307.121372 148.679257 
L 307.59918 122.226646 
L 308.076988 129.735028 
L 308.554796 134.817634 
L 309.032604 125.865309 
L 310.466028 142.585911 
L 310.943835 134.586601 
L 311.421643 137.792107 
L 311.899451 157.602697 
L 312.377259 151.942532 
L 313.810683 157.573813 
L 314.288491 150.354211 
L 314.766299 146.542261 
L 315.244107 140.246767 
L 317.155338 143.625536 
L 318.110954 144.636276 
L 318.588762 135.886121 
L 319.06657 134.962013 
L 320.499994 125.980826 
L 320.977801 139.582554 
L 321.455609 121.100389 
L 321.933417 132.391836 
L 322.411225 128.984183 
L 323.844649 131.438843 
L 324.322457 131.438843 
L 324.800265 131.034547 
L 325.278073 129.099699 
L 325.755881 138.225287 
L 327.189304 133.893526 
L 327.667112 138.918363 
L 328.14492 136.723598 
L 328.622728 140.506662 
L 330.53396 136.867998 
L 331.011768 137.474442 
L 331.489575 116.07553 
L 332.445191 96.293824 
L 333.878615 97.651113 
L 334.356423 95.3986 
L 334.834231 94.994304 
L 335.312039 95.080936 
L 335.789847 96.90029 
L 337.22327 96.640351 
L 337.701078 98.546337 
L 338.178886 99.095033 
L 338.656694 106.170235 
L 339.134502 103.513427 
L 340.567926 102.271676 
L 341.045734 94.532239 
L 341.523541 96.929153 
L 342.001349 88.26563 
L 342.479157 83.933868 
L 343.912581 81.767988 
L 344.390389 91.384503 
L 345.346005 81.79685 
L 345.823813 86.099749 
L 347.735044 91.182333 
L 348.212852 84.569197 
L 348.69066 86.590677 
L 349.168468 86.128612 
L 350.601892 89.622919 
L 351.0797 92.712885 
L 351.557507 90.662543 
L 352.035315 95.340831 
L 352.513123 98.373073 
L 353.946547 108.538264 
L 354.424355 110.617513 
L 354.902163 105.390528 
L 355.379971 120.234028 
L 355.857779 121.880097 
L 357.291202 109.202477 
L 357.76901 108.711549 
L 358.246818 116.450964 
L 358.246818 116.450964 
" style="fill:none;stroke:#2ca02c;stroke-linecap:square;stroke-width:1.5;"/>
   </g>
   <g id="line2d_21">
    <path clip-path="url(#p4f19ab0733)" d="M 53.883182 168.769631 
L 54.36099 166.51959 
L 54.838798 173.35313 
L 56.272221 161.60274 
L 56.750029 163.936135 
L 57.227837 163.769491 
L 57.705645 165.519537 
L 58.183453 173.686482 
L 59.616877 177.10322 
L 60.094685 187.02021 
L 60.572493 173.35313 
L 61.0503 176.936576 
L 61.528108 161.686094 
L 63.43934 166.436237 
L 63.917148 166.60288 
L 64.394956 169.852975 
L 64.872764 181.020016 
L 66.306187 192.020351 
L 66.783995 188.686902 
L 67.261803 184.020113 
L 67.739611 186.603505 
L 68.217419 163.102789 
L 69.650843 163.269496 
L 70.128651 151.352462 
L 70.606459 155.852607 
L 71.084266 155.019198 
L 71.562074 156.6026 
L 72.995498 147.852307 
L 73.473306 152.102454 
L 73.951114 141.518825 
L 74.90673 132.351827 
L 76.817961 131.268483 
L 77.295769 137.852026 
L 77.773577 136.351977 
L 78.251385 131.435191 
L 79.684809 122.351546 
L 80.162617 125.185 
L 80.640425 125.018292 
L 81.118232 125.101646 
L 81.59604 114.851304 
L 83.029464 112.601263 
L 83.507272 117.184699 
L 83.98508 116.184709 
L 84.462888 120.934852 
L 84.940696 127.768392 
L 86.374119 126.518341 
L 86.851927 119.768154 
L 87.329735 116.101355 
L 87.807543 118.601457 
L 88.285351 117.018055 
L 89.718775 118.934808 
L 91.152199 112.017915 
L 91.630006 105.267665 
L 93.06343 112.267912 
L 93.541238 106.517716 
L 94.019046 105.184375 
L 94.496854 106.267718 
L 94.974662 104.517672 
L 96.408085 98.434125 
L 96.885893 100.684229 
L 97.363701 102.267631 
L 97.841509 104.434319 
L 98.319317 113.101258 
L 100.230549 124.768295 
L 100.708357 122.351546 
L 101.186165 121.768198 
L 101.663972 129.435084 
L 103.097396 135.268634 
L 103.575204 135.935273 
L 104.053012 149.435709 
L 104.53082 183.853406 
L 106.442052 186.520152 
L 106.919859 182.02007 
L 107.397667 173.43642 
L 107.875475 174.686471 
L 108.353283 157.5193 
L 109.786707 157.936004 
L 110.742323 140.435418 
L 111.220131 141.10212 
L 111.697938 133.351881 
L 113.131362 141.768823 
L 113.60917 138.768726 
L 114.564786 148.85236 
L 115.042594 145.518912 
L 116.476018 156.019251 
L 116.953825 149.352355 
L 117.431633 155.602546 
L 117.909441 148.102368 
L 118.387249 142.768813 
L 119.820673 143.185517 
L 120.298481 137.185324 
L 120.776289 134.935283 
L 121.254097 124.518297 
L 121.731905 118.684747 
L 123.643136 118.018108 
L 124.120944 128.518384 
L 124.598752 133.185237 
L 125.07656 135.101926 
L 126.509984 132.435181 
L 126.987791 123.268246 
L 127.465599 118.018108 
L 127.943407 111.517856 
L 128.421215 114.351309 
L 129.854639 107.184418 
L 130.810255 103.350975 
L 131.288063 95.684089 
L 131.765871 106.934421 
L 133.199294 107.017774 
L 133.677102 102.600919 
L 134.15491 94.100687 
L 134.632718 79.683551 
L 135.110526 92.517285 
L 136.54395 88.100493 
L 137.021758 83.266996 
L 137.499565 86.350447 
L 137.977373 98.934183 
L 138.455181 96.434081 
L 140.366413 92.350641 
L 140.844221 79.016912 
L 141.799837 73.850064 
L 143.23326 87.767142 
L 143.711068 94.18404 
L 144.188876 89.517188 
L 144.666684 100.350878 
L 145.144492 122.4349 
L 146.577916 124.518297 
L 147.533531 113.184612 
L 148.011339 109.434459 
L 148.489147 107.017774 
L 149.922571 115.518006 
L 150.400379 117.184699 
L 150.878187 112.851261 
L 151.355995 117.43476 
L 151.833803 116.351353 
L 153.267226 112.017915 
L 153.745034 96.267438 
L 154.222842 105.351018 
L 154.70065 104.017677 
L 155.178458 97.184137 
L 156.611882 97.434135 
L 157.08969 103.517619 
L 157.567498 94.434038 
L 158.045305 89.933893 
L 158.523113 87.017149 
L 159.956537 85.933742 
L 160.434345 84.017052 
L 160.912153 84.767045 
L 161.389961 100.184234 
L 161.867769 92.433995 
L 164.734616 73.266716 
L 165.212424 77.683507 
L 166.645848 84.683755 
L 167.123656 76.016815 
L 167.601464 85.683745 
L 168.079271 70.59997 
L 168.557079 70.183265 
L 170.468311 77.516864 
L 170.946119 70.016621 
L 171.423927 74.183416 
L 171.901735 75.016762 
L 173.335158 75.350113 
L 173.812966 109.601166 
L 174.290774 114.017958 
L 174.768582 100.517522 
L 175.24639 104.76767 
L 176.679814 109.101171 
L 177.157622 111.767917 
L 177.63543 107.267772 
L 178.113237 104.351028 
L 178.591045 90.017246 
L 180.024469 88.600488 
L 180.502277 91.600585 
L 180.980085 100.600876 
L 181.457893 99.350825 
L 181.935701 97.184137 
L 183.369124 102.767626 
L 183.846932 94.684035 
L 184.802548 113.434609 
L 185.280356 101.01758 
L 186.71378 87.600498 
L 187.191588 97.93413 
L 187.669396 94.767389 
L 188.147204 95.017387 
L 188.625011 93.683982 
L 190.058435 93.100633 
L 190.536243 88.683842 
L 191.014051 87.3505 
L 191.969667 98.600832 
L 193.40309 88.100493 
L 193.880898 112.851261 
L 194.358706 118.768101 
L 194.836514 103.600972 
L 195.314322 110.60122 
L 196.747746 106.767713 
L 197.225554 95.767379 
L 198.658977 70.59997 
L 200.092401 82.933709 
L 200.570209 98.934183 
L 201.048017 99.850883 
L 202.003633 105.267665 
L 203.437057 103.184268 
L 203.914864 99.684176 
L 204.392672 91.600585 
L 204.87048 88.517198 
L 205.348288 90.433888 
L 206.781712 90.683885 
L 207.25952 92.850636 
L 207.737328 91.767292 
L 208.215136 82.017009 
L 208.692943 82.43365 
L 210.126367 79.183556 
L 210.604175 79.516907 
L 211.081983 67.849871 
L 212.037599 69.766624 
L 213.471023 66.683173 
L 213.94883 73.850064 
L 214.426638 66.766527 
L 214.904446 56.766183 
L 215.382254 54.516142 
L 216.815678 55.349488 
L 217.293486 57.84959 
L 217.771294 53.349445 
L 218.249102 54.182791 
L 220.160333 49.099297 
L 220.638141 51.766042 
L 221.115949 51.599399 
L 221.593757 47.099253 
L 222.071565 34.015522 
L 223.504989 30.932071 
L 223.982796 32.515473 
L 224.938412 32.848825 
L 225.41622 32.182122 
L 226.849644 33.432173 
L 227.327452 38.515667 
L 228.283068 37.182263 
L 228.760876 40.515711 
L 230.194299 35.932212 
L 230.672107 39.515657 
L 231.149915 53.766149 
L 231.627723 54.932847 
L 232.105531 48.515948 
L 233.538955 50.182704 
L 234.016763 52.266101 
L 234.49457 45.349207 
L 234.972378 30.682074 
L 235.450186 35.51557 
L 237.361418 40.18236 
L 238.317034 49.015943 
L 238.794842 57.599592 
L 240.228265 87.017149 
L 240.706073 75.850108 
L 241.183881 74.516767 
L 241.661689 71.600023 
L 242.139497 76.350166 
L 243.572921 79.183556 
L 244.050729 59.266285 
L 244.528536 90.517241 
L 245.006344 79.350263 
L 245.484152 80.433607 
L 246.917576 87.183793 
L 247.395384 80.683604 
L 247.873192 87.517144 
L 248.351 105.101021 
L 248.828808 110.934507 
L 251.217847 103.85097 
L 251.695655 111.017861 
L 252.173463 111.267859 
L 253.606887 124.434943 
L 254.084695 116.768057 
L 254.562502 124.018239 
L 255.04031 123.601597 
L 255.518118 157.185948 
L 256.951542 153.435859 
L 257.42935 117.851401 
L 257.907158 117.018055 
L 258.384966 116.768057 
L 258.862774 129.768435 
L 260.296197 146.185614 
L 260.774005 125.518287 
L 261.251813 130.935132 
L 261.729621 176.18652 
L 262.207429 161.019392 
L 263.640853 206.437487 
L 264.118661 199.103888 
L 264.596469 200.770644 
L 265.074276 201.60399 
L 265.552084 216.604411 
L 266.985508 210.604281 
L 267.463316 221.271264 
L 267.941124 226.104697 
L 268.418932 228.354801 
L 268.89674 197.853837 
L 270.330163 182.686709 
L 270.807971 160.769394 
L 271.285779 174.019769 
L 271.763587 163.019435 
L 272.241395 160.519397 
L 273.674819 143.435515 
L 274.152627 115.518006 
L 274.630435 136.351977 
L 275.108242 119.768154 
L 277.019474 114.351309 
L 277.497282 110.101161 
L 277.97509 119.268096 
L 278.930706 96.600789 
L 280.364129 106.017721 
L 280.841937 116.018001 
L 281.319745 136.185334 
L 281.797553 127.935035 
L 282.275361 116.184709 
L 283.708785 119.268096 
L 284.186593 119.684801 
L 284.664401 111.267859 
L 285.142209 131.018486 
L 285.620016 139.018723 
L 287.05344 146.018971 
L 287.531248 152.435806 
L 288.009056 143.268871 
L 288.486864 154.519203 
L 288.964672 158.685997 
L 290.398095 162.602794 
L 290.875903 144.935563 
L 291.353711 157.352592 
L 291.831519 152.185808 
L 292.309327 128.601738 
L 293.742751 121.184849 
L 295.176175 156.519246 
L 295.653982 161.436096 
L 297.565214 144.018864 
L 298.043022 154.519203 
L 298.52083 141.185474 
L 298.998638 134.018583 
L 300.432062 128.018389 
L 300.909869 133.351881 
L 301.387677 121.184849 
L 301.865485 118.934808 
L 302.343293 111.934561 
L 303.776717 119.934798 
L 304.254525 102.93427 
L 304.732333 109.184461 
L 305.210141 122.768251 
L 305.687948 147.102314 
L 307.121372 171.936372 
L 307.59918 168.019639 
L 308.076988 151.519106 
L 308.554796 165.936242 
L 309.032604 153.435859 
L 310.466028 151.435752 
L 310.943835 150.352409 
L 311.421643 156.769244 
L 311.899451 165.769534 
L 312.377259 159.936048 
L 313.810683 163.686137 
L 315.244107 141.435471 
L 317.155338 135.851982 
L 317.633146 137.852026 
L 318.110954 140.935477 
L 318.588762 146.685609 
L 319.06657 156.6026 
L 320.499994 154.519203 
L 320.977801 150.019057 
L 321.455609 135.851982 
L 321.933417 131.351837 
L 322.411225 131.851832 
L 323.844649 130.601781 
L 324.322457 131.851832 
L 324.800265 135.18528 
L 325.278073 136.601975 
L 325.755881 147.435665 
L 327.189304 159.435989 
L 327.667112 136.268624 
L 328.14492 135.768629 
L 328.622728 140.102067 
L 329.100536 122.101549 
L 331.011768 108.267762 
L 331.489575 112.267912 
L 332.445191 122.934895 
L 333.878615 121.101495 
L 334.356423 114.934658 
L 334.834231 118.101398 
L 335.312039 111.767917 
L 335.789847 101.350932 
L 337.22327 93.850689 
L 337.701078 88.767195 
L 338.178886 91.517295 
L 338.656694 89.517188 
L 339.134502 87.017149 
L 340.567926 86.183803 
L 341.045734 80.266899 
L 341.523541 85.267103 
L 342.001349 84.100406 
L 342.479157 80.516961 
L 343.912581 82.850355 
L 344.390389 84.933752 
L 344.868197 92.183933 
L 345.346005 65.433122 
L 345.823813 83.266996 
L 347.735044 80.016902 
L 348.212852 98.100837 
L 348.69066 90.100536 
L 349.168468 97.517489 
L 350.601892 94.517392 
L 351.0797 90.100536 
L 351.557507 92.01729 
L 352.035315 84.683755 
L 352.513123 83.100353 
L 353.946547 88.517198 
L 354.424355 103.684326 
L 354.902163 103.76768 
L 355.379971 112.017915 
L 355.857779 111.60121 
L 357.291202 102.85098 
L 358.246818 110.68451 
L 358.246818 110.68451 
" style="fill:none;stroke:#d62728;stroke-linecap:square;stroke-width:1.5;"/>
   </g>
   <g id="line2d_22">
    <path clip-path="url(#p4f19ab0733)" d="M 53.883182 228.354801 
L 54.36099 223.148525 
L 54.838798 223.148525 
L 56.272221 221.788912 
L 56.750029 217.013745 
L 57.227837 214.858275 
L 57.705645 220.926744 
L 58.183453 217.245871 
L 59.616877 218.937064 
L 60.094685 215.654132 
L 61.528108 210.746318 
L 63.43934 210.083083 
L 63.917148 204.379386 
L 64.394956 206.601193 
L 64.872764 204.777328 
L 66.306187 212.139074 
L 66.783995 211.343217 
L 67.261803 211.641654 
L 67.739611 218.439669 
L 68.217419 214.161897 
L 69.650843 220.993055 
L 70.128651 216.383678 
L 70.606459 215.786779 
L 71.084266 216.84793 
L 71.562074 212.769141 
L 72.995498 215.057233 
L 73.473306 211.177402 
L 74.428922 208.325554 
L 74.90673 204.014613 
L 76.817961 192.739893 
L 77.295769 194.630069 
L 77.773577 201.759664 
L 78.251385 201.229102 
L 79.684809 200.234261 
L 80.640425 206.866462 
L 81.118232 206.89963 
L 81.59604 202.389732 
L 83.029464 206.866462 
L 83.507272 206.833319 
L 83.98508 206.369067 
L 84.462888 208.226075 
L 84.940696 208.756638 
L 86.374119 207.131756 
L 86.851927 205.506874 
L 87.329735 204.943143 
L 87.807543 205.904789 
L 88.285351 206.335899 
L 89.718775 206.269563 
L 90.196583 200.665371 
L 91.152199 206.435378 
L 91.630006 205.341059 
L 93.06343 207.927613 
L 93.541238 206.070605 
L 94.019046 206.800151 
L 94.496854 208.624016 
L 94.974662 208.624016 
L 96.408085 207.363882 
L 96.885893 208.06026 
L 97.363701 210.182562 
L 97.841509 209.751478 
L 98.319317 206.435378 
L 99.752741 205.772168 
L 100.230549 204.611512 
L 100.708357 205.573185 
L 101.663972 197.316102 
L 103.097396 196.321262 
L 103.575204 191.048675 
L 104.53082 190.319129 
L 106.442052 191.413448 
L 106.919859 192.242473 
L 107.397667 190.21965 
L 107.875475 189.888045 
L 108.353283 199.139968 
L 109.786707 194.397943 
L 110.264515 194.762717 
L 110.742323 191.446616 
L 111.220131 195.890178 
L 111.697938 192.938851 
L 113.131362 198.145127 
L 113.60917 194.663212 
L 114.086978 199.803177 
L 114.564786 203.052967 
L 115.042594 201.428059 
L 116.476018 199.139968 
L 116.953825 200.167951 
L 117.431633 199.968993 
L 117.909441 191.247633 
L 118.387249 199.836346 
L 119.820673 199.338926 
L 120.298481 195.624884 
L 120.776289 195.326447 
L 121.254097 194.596901 
L 121.731905 193.403103 
L 123.643136 192.142994 
L 124.120944 193.635229 
L 124.598752 192.37512 
L 125.07656 196.155472 
L 126.509984 195.226969 
L 126.987791 191.977179 
L 127.465599 191.512927 
L 127.943407 185.74292 
L 128.421215 183.288988 
L 129.854639 179.143863 
L 130.332447 174.103402 
L 130.810255 174.368696 
L 131.288063 170.787302 
L 131.765871 171.516848 
L 133.199294 170.389361 
L 133.677102 168.134412 
L 134.632718 168.068101 
L 135.110526 166.34374 
L 136.54395 162.53022 
L 137.021758 164.553043 
L 137.499565 164.652522 
L 137.977373 167.272244 
L 138.455181 165.647337 
L 139.888605 163.160262 
L 140.366413 164.718833 
L 140.844221 163.558203 
L 141.799837 160.839002 
L 143.23326 161.104296 
L 143.711068 157.887675 
L 144.666684 156.39544 
L 145.144492 153.908365 
L 146.577916 151.985021 
L 147.055724 149.796382 
L 148.011339 153.046172 
L 148.489147 150.890701 
L 149.922571 153.875197 
L 150.878187 160.739523 
L 151.355995 160.242103 
L 151.833803 160.441061 
L 153.267226 158.05349 
L 153.745034 160.640044 
L 154.222842 161.137439 
L 154.70065 166.410051 
L 156.611882 174.103402 
L 157.08969 180.105535 
L 158.045305 174.070234 
L 158.523113 173.904444 
L 159.956537 178.348006 
L 160.434345 183.222677 
L 160.912153 182.459963 
L 161.389961 159.081473 
L 161.867769 153.941507 
L 163.301192 153.046172 
L 163.779 154.671054 
L 164.256808 154.273112 
L 164.734616 160.175792 
L 165.212424 162.099111 
L 166.645848 162.298094 
L 167.123656 159.446246 
L 167.601464 159.910498 
L 168.079271 153.543592 
L 168.557079 150.890701 
L 170.468311 155.267953 
L 171.423927 142.03672 
L 171.901735 149.431609 
L 173.335158 152.548751 
L 173.812966 147.607769 
L 174.290774 147.574601 
L 175.24639 143.727913 
L 176.679814 145.783904 
L 177.157622 149.82955 
L 177.63543 144.556938 
L 178.113237 142.932056 
L 178.591045 143.097871 
L 180.024469 145.551778 
L 180.502277 140.113376 
L 180.980085 139.38383 
L 181.935701 136.929923 
L 183.369124 138.72062 
L 183.846932 138.123721 
L 184.802548 147.972542 
L 185.280356 146.248156 
L 186.71378 140.610796 
L 187.191588 144.888568 
L 187.669396 140.345502 
L 188.147204 137.957906 
L 188.625011 134.575495 
L 190.058435 134.807621 
L 190.536243 136.531982 
L 191.014051 136.598318 
L 191.491859 135.40452 
L 191.969667 132.817966 
L 193.40309 136.631461 
L 193.880898 135.139226 
L 194.358706 137.06257 
L 194.836514 137.128881 
L 195.314322 137.626301 
L 196.747746 136.797276 
L 197.225554 139.284351 
L 197.703362 143.661602 
L 198.18117 141.174527 
L 198.658977 141.207695 
L 200.092401 139.615956 
L 200.570209 142.003552 
L 201.525825 134.310201 
L 202.003633 133.282218 
L 203.437057 138.621141 
L 203.914864 135.636646 
L 204.392672 137.095713 
L 204.87048 119.056146 
L 205.348288 132.055252 
L 206.781712 139.450166 
L 207.25952 133.945428 
L 207.737328 133.613823 
L 208.215136 138.190032 
L 208.692943 133.812781 
L 210.126367 134.310201 
L 210.604175 137.758948 
L 211.081983 136.333024 
L 212.037599 137.162049 
L 213.471023 137.128881 
L 213.94883 139.615956 
L 214.426638 137.22836 
L 214.904446 139.748603 
L 215.382254 137.361007 
L 216.815678 135.736125 
L 217.293486 136.465671 
L 217.771294 136.299856 
L 218.249102 137.626301 
L 218.72691 137.095713 
L 220.160333 132.917445 
L 221.115949 129.302883 
L 221.593757 134.509159 
L 222.071565 129.402362 
L 223.504989 133.646991 
L 223.982796 137.195217 
L 224.938412 135.603478 
L 225.41622 134.509159 
L 226.849644 134.973411 
L 228.283068 138.090553 
L 228.760876 140.047065 
L 230.194299 142.932056 
L 230.672107 143.396308 
L 231.149915 146.579761 
L 231.627723 147.077181 
L 232.105531 143.462644 
L 233.538955 146.314492 
L 234.49457 152.117668 
L 234.972378 149.232651 
L 235.450186 147.408786 
L 237.361418 152.250315 
L 237.839226 150.161155 
L 238.317034 146.878223 
L 238.794842 147.574601 
L 240.228265 156.892834 
L 240.706073 147.640912 
L 241.183881 145.717593 
L 241.661689 148.867878 
L 242.139497 148.237811 
L 243.572921 151.222306 
L 244.528536 148.901046 
L 245.006344 144.822232 
L 245.484152 147.209828 
L 246.917576 148.403626 
L 247.395384 149.464777 
L 247.873192 149.232651 
L 248.351 148.072021 
L 248.828808 142.03672 
L 250.740039 139.38383 
L 251.217847 135.968251 
L 251.695655 143.562123 
L 252.173463 142.799409 
L 253.606887 142.733098 
L 254.084695 146.413971 
L 254.562502 151.885542 
L 255.04031 158.981994 
L 255.518118 175.131385 
L 256.951542 175.429847 
L 257.42935 147.309307 
L 257.907158 153.410945 
L 258.384966 152.880356 
L 258.862774 154.637885 
L 260.296197 154.803701 
L 260.774005 140.610796 
L 261.251813 142.567283 
L 261.729621 180.669291 
L 262.207429 173.307545 
L 263.640853 183.388492 
L 264.118661 158.285616 
L 264.596469 150.890701 
L 265.074276 119.520398 
L 265.552084 135.968251 
L 266.985508 153.643071 
L 267.463316 148.005685 
L 268.418932 169.460857 
L 268.89674 167.106429 
L 270.330163 161.303254 
L 270.807971 153.178819 
L 271.285779 160.341582 
L 271.763587 156.926003 
L 272.241395 143.562123 
L 273.674819 137.427343 
L 274.152627 121.112112 
L 274.630435 122.073784 
L 275.108242 140.212855 
L 277.019474 130.098765 
L 277.497282 110.765896 
L 277.97509 104.4653 
L 278.452898 104.4653 
L 278.930706 96.241386 
L 280.364129 93.223723 
L 280.841937 100.917049 
L 281.319745 101.1492 
L 281.797553 101.646595 
L 282.275361 103.304645 
L 283.708785 101.1492 
L 284.186593 106.852897 
L 285.142209 124.096607 
L 285.620016 129.402362 
L 287.05344 121.576389 
L 287.531248 121.709011 
L 288.009056 117.033323 
L 288.486864 122.836498 
L 288.964672 125.190926 
L 290.398095 124.229254 
L 290.875903 119.454062 
L 291.353711 122.703851 
L 291.831519 118.227121 
L 292.309327 122.80333 
L 293.742751 109.439451 
L 294.220559 95.346025 
L 294.698367 112.788719 
L 295.176175 118.094474 
L 295.653982 117.398096 
L 297.565214 119.918339 
L 298.043022 121.14528 
L 298.52083 121.974305 
L 298.998638 120.249944 
L 300.432062 122.902809 
L 300.909869 122.405414 
L 301.387677 121.377406 
L 301.865485 125.025111 
L 302.343293 125.787825 
L 303.776717 135.702957 
L 304.254525 129.004446 
L 304.732333 129.137093 
L 305.687948 132.618983 
L 307.121372 139.615956 
L 307.59918 134.973411 
L 308.076988 134.774453 
L 308.554796 139.151704 
L 309.032604 137.991074 
L 310.466028 131.09358 
L 310.943835 125.190926 
L 311.421643 131.856294 
L 311.899451 135.106058 
L 312.377259 135.636646 
L 313.810683 139.284351 
L 314.288491 136.896755 
L 314.766299 136.134066 
L 315.244107 134.011764 
L 317.155338 134.973411 
L 317.633146 139.450166 
L 318.110954 107.781401 
L 318.588762 115.706878 
L 319.06657 105.327468 
L 320.499994 96.738781 
L 320.977801 103.536796 
L 321.455609 93.621639 
L 321.933417 94.351185 
L 322.411225 89.973959 
L 324.322457 95.976092 
L 324.800265 92.626799 
L 325.278073 91.2009 
L 325.755881 97.998915 
L 327.189304 98.297352 
L 327.667112 96.17505 
L 328.14492 95.976092 
L 328.622728 103.072544 
L 329.100536 102.309856 
L 330.53396 101.447637 
L 331.011768 102.309856 
L 331.489575 99.656965 
L 331.967383 104.034191 
L 332.445191 102.541956 
L 333.878615 100.353318 
L 334.356423 92.560513 
L 334.834231 99.590629 
L 335.312039 97.136697 
L 335.789847 93.389538 
L 337.22327 86.724145 
L 337.701078 80.688869 
L 338.178886 87.188397 
L 338.656694 97.136697 
L 339.134502 99.325335 
L 340.567926 93.687975 
L 341.045734 98.49631 
L 341.523541 100.452797 
L 342.001349 97.567806 
L 342.479157 64.6721 
L 343.912581 76.344786 
L 344.390389 64.00889 
L 344.868197 30.682074 
L 345.346005 45.770339 
L 345.823813 54.657463 
L 347.735044 63.312486 
L 348.212852 67.689763 
L 348.69066 67.789242 
L 349.168468 77.770685 
L 350.601892 80.788348 
L 351.0797 73.857711 
L 351.557507 73.260787 
L 352.035315 83.142801 
L 352.513123 79.793508 
L 353.946547 79.59455 
L 354.424355 77.704349 
L 354.902163 71.3043 
L 355.379971 82.147961 
L 355.857779 79.528214 
L 357.291202 77.405912 
L 357.76901 77.107475 
L 358.246818 76.643223 
L 358.246818 76.643223 
" style="fill:none;stroke:#9467bd;stroke-linecap:square;stroke-width:1.5;"/>
   </g>
   <g id="patch_3">
    <path d="M 38.665 238.238437 
L 38.665 20.798437 
" style="fill:none;stroke:#000000;stroke-linecap:square;stroke-linejoin:miter;stroke-width:0.8;"/>
   </g>
   <g id="patch_4">
    <path d="M 373.465 238.238437 
L 373.465 20.798437 
" style="fill:none;stroke:#000000;stroke-linecap:square;stroke-linejoin:miter;stroke-width:0.8;"/>
   </g>
   <g id="patch_5">
    <path d="M 38.665 238.238437 
L 373.465 238.238437 
" style="fill:none;stroke:#000000;stroke-linecap:square;stroke-linejoin:miter;stroke-width:0.8;"/>
   </g>
   <g id="patch_6">
    <path d="M 38.665 20.798437 
L 373.465 20.798437 
" style="fill:none;stroke:#000000;stroke-linecap:square;stroke-linejoin:miter;stroke-width:0.8;"/>
   </g>
   <g id="text_20">
    <!-- Stock price movement over time -->
    <g transform="translate(123.937656 14.798437)scale(0.1 -0.1)">
     <defs>
      <path d="M 53.515625 70.515625 
L 53.515625 60.890625 
Q 47.90625 63.578125 42.921875 64.890625 
Q 37.9375 66.21875 33.296875 66.21875 
Q 25.25 66.21875 20.875 63.09375 
Q 16.5 59.96875 16.5 54.203125 
Q 16.5 49.359375 19.40625 46.890625 
Q 22.3125 44.4375 30.421875 42.921875 
L 36.375 41.703125 
Q 47.40625 39.59375 52.65625 34.296875 
Q 57.90625 29 57.90625 20.125 
Q 57.90625 9.515625 50.796875 4.046875 
Q 43.703125 -1.421875 29.984375 -1.421875 
Q 24.8125 -1.421875 18.96875 -0.25 
Q 13.140625 0.921875 6.890625 3.21875 
L 6.890625 13.375 
Q 12.890625 10.015625 18.65625 8.296875 
Q 24.421875 6.59375 29.984375 6.59375 
Q 38.421875 6.59375 43.015625 9.90625 
Q 47.609375 13.234375 47.609375 19.390625 
Q 47.609375 24.75 44.3125 27.78125 
Q 41.015625 30.8125 33.5 32.328125 
L 27.484375 33.5 
Q 16.453125 35.6875 11.515625 40.375 
Q 6.59375 45.0625 6.59375 53.421875 
Q 6.59375 63.09375 13.40625 68.65625 
Q 20.21875 74.21875 32.171875 74.21875 
Q 37.3125 74.21875 42.625 73.28125 
Q 47.953125 72.359375 53.515625 70.515625 
z
" id="DejaVuSans-83"/>
      <path d="M 52 44.1875 
Q 55.375 50.25 60.0625 53.125 
Q 64.75 56 71.09375 56 
Q 79.640625 56 84.28125 50.015625 
Q 88.921875 44.046875 88.921875 33.015625 
L 88.921875 0 
L 79.890625 0 
L 79.890625 32.71875 
Q 79.890625 40.578125 77.09375 44.375 
Q 74.3125 48.1875 68.609375 48.1875 
Q 61.625 48.1875 57.5625 43.546875 
Q 53.515625 38.921875 53.515625 30.90625 
L 53.515625 0 
L 44.484375 0 
L 44.484375 32.71875 
Q 44.484375 40.625 41.703125 44.40625 
Q 38.921875 48.1875 33.109375 48.1875 
Q 26.21875 48.1875 22.15625 43.53125 
Q 18.109375 38.875 18.109375 30.90625 
L 18.109375 0 
L 9.078125 0 
L 9.078125 54.6875 
L 18.109375 54.6875 
L 18.109375 46.1875 
Q 21.1875 51.21875 25.484375 53.609375 
Q 29.78125 56 35.6875 56 
Q 41.65625 56 45.828125 52.96875 
Q 50 49.953125 52 44.1875 
z
" id="DejaVuSans-109"/>
      <path d="M 2.984375 54.6875 
L 12.5 54.6875 
L 29.59375 8.796875 
L 46.6875 54.6875 
L 56.203125 54.6875 
L 35.6875 0 
L 23.484375 0 
z
" id="DejaVuSans-118"/>
     </defs>
     <use xlink:href="#DejaVuSans-83"/>
     <use x="63.476562" xlink:href="#DejaVuSans-116"/>
     <use x="102.685547" xlink:href="#DejaVuSans-111"/>
     <use x="163.867188" xlink:href="#DejaVuSans-99"/>
     <use x="218.847656" xlink:href="#DejaVuSans-107"/>
     <use x="276.757812" xlink:href="#DejaVuSans-32"/>
     <use x="308.544922" xlink:href="#DejaVuSans-112"/>
     <use x="372.021484" xlink:href="#DejaVuSans-114"/>
     <use x="413.134766" xlink:href="#DejaVuSans-105"/>
     <use x="440.917969" xlink:href="#DejaVuSans-99"/>
     <use x="495.898438" xlink:href="#DejaVuSans-101"/>
     <use x="557.421875" xlink:href="#DejaVuSans-32"/>
     <use x="589.208984" xlink:href="#DejaVuSans-109"/>
     <use x="686.621094" xlink:href="#DejaVuSans-111"/>
     <use x="747.802734" xlink:href="#DejaVuSans-118"/>
     <use x="806.982422" xlink:href="#DejaVuSans-101"/>
     <use x="868.505859" xlink:href="#DejaVuSans-109"/>
     <use x="965.917969" xlink:href="#DejaVuSans-101"/>
     <use x="1027.441406" xlink:href="#DejaVuSans-110"/>
     <use x="1090.820312" xlink:href="#DejaVuSans-116"/>
     <use x="1130.029297" xlink:href="#DejaVuSans-32"/>
     <use x="1161.816406" xlink:href="#DejaVuSans-111"/>
     <use x="1222.998047" xlink:href="#DejaVuSans-118"/>
     <use x="1282.177734" xlink:href="#DejaVuSans-101"/>
     <use x="1343.701172" xlink:href="#DejaVuSans-114"/>
     <use x="1384.814453" xlink:href="#DejaVuSans-32"/>
     <use x="1416.601562" xlink:href="#DejaVuSans-116"/>
     <use x="1455.810547" xlink:href="#DejaVuSans-105"/>
     <use x="1483.59375" xlink:href="#DejaVuSans-109"/>
     <use x="1581.005859" xlink:href="#DejaVuSans-101"/>
    </g>
   </g>
   <g id="legend_1">
    <g id="patch_7">
     <path d="M 183.041875 234.238437 
L 229.088125 234.238437 
Q 230.688125 234.238437 230.688125 232.638437 
L 230.688125 174.725937 
Q 230.688125 173.125937 229.088125 173.125937 
L 183.041875 173.125937 
Q 181.441875 173.125937 181.441875 174.725937 
L 181.441875 232.638437 
Q 181.441875 234.238437 183.041875 234.238437 
z
" style="fill:#ffffff;opacity:0.8;stroke:#cccccc;stroke-linejoin:miter;"/>
    </g>
    <g id="line2d_23">
     <path d="M 184.641875 179.604687 
L 200.641875 179.604687 
" style="fill:none;stroke:#1f77b4;stroke-linecap:square;stroke-width:1.5;"/>
    </g>
    <g id="line2d_24"/>
    <g id="text_21">
     <!-- AAPL -->
     <g transform="translate(207.041875 182.404687)scale(0.08 -0.08)">
      <defs>
       <path d="M 34.1875 63.1875 
L 20.796875 26.90625 
L 47.609375 26.90625 
z
M 28.609375 72.90625 
L 39.796875 72.90625 
L 67.578125 0 
L 57.328125 0 
L 50.6875 18.703125 
L 17.828125 18.703125 
L 11.1875 0 
L 0.78125 0 
z
" id="DejaVuSans-65"/>
       <path d="M 19.671875 64.796875 
L 19.671875 37.40625 
L 32.078125 37.40625 
Q 38.96875 37.40625 42.71875 40.96875 
Q 46.484375 44.53125 46.484375 51.125 
Q 46.484375 57.671875 42.71875 61.234375 
Q 38.96875 64.796875 32.078125 64.796875 
z
M 9.8125 72.90625 
L 32.078125 72.90625 
Q 44.34375 72.90625 50.609375 67.359375 
Q 56.890625 61.8125 56.890625 51.125 
Q 56.890625 40.328125 50.609375 34.8125 
Q 44.34375 29.296875 32.078125 29.296875 
L 19.671875 29.296875 
L 19.671875 0 
L 9.8125 0 
z
" id="DejaVuSans-80"/>
       <path d="M 9.8125 72.90625 
L 19.671875 72.90625 
L 19.671875 8.296875 
L 55.171875 8.296875 
L 55.171875 0 
L 9.8125 0 
z
" id="DejaVuSans-76"/>
      </defs>
      <use xlink:href="#DejaVuSans-65"/>
      <use x="71.158203" xlink:href="#DejaVuSans-65"/>
      <use x="139.566406" xlink:href="#DejaVuSans-80"/>
      <use x="199.869141" xlink:href="#DejaVuSans-76"/>
     </g>
    </g>
    <g id="line2d_25">
     <path d="M 184.641875 191.347187 
L 200.641875 191.347187 
" style="fill:none;stroke:#ff7f0e;stroke-linecap:square;stroke-width:1.5;"/>
    </g>
    <g id="line2d_26"/>
    <g id="text_22">
     <!-- BA -->
     <g transform="translate(207.041875 194.147187)scale(0.08 -0.08)">
      <defs>
       <path d="M 19.671875 34.8125 
L 19.671875 8.109375 
L 35.5 8.109375 
Q 43.453125 8.109375 47.28125 11.40625 
Q 51.125 14.703125 51.125 21.484375 
Q 51.125 28.328125 47.28125 31.5625 
Q 43.453125 34.8125 35.5 34.8125 
z
M 19.671875 64.796875 
L 19.671875 42.828125 
L 34.28125 42.828125 
Q 41.5 42.828125 45.03125 45.53125 
Q 48.578125 48.25 48.578125 53.8125 
Q 48.578125 59.328125 45.03125 62.0625 
Q 41.5 64.796875 34.28125 64.796875 
z
M 9.8125 72.90625 
L 35.015625 72.90625 
Q 46.296875 72.90625 52.390625 68.21875 
Q 58.5 63.53125 58.5 54.890625 
Q 58.5 48.1875 55.375 44.234375 
Q 52.25 40.28125 46.1875 39.3125 
Q 53.46875 37.75 57.5 32.78125 
Q 61.53125 27.828125 61.53125 20.40625 
Q 61.53125 10.640625 54.890625 5.3125 
Q 48.25 0 35.984375 0 
L 9.8125 0 
z
" id="DejaVuSans-66"/>
      </defs>
      <use xlink:href="#DejaVuSans-66"/>
      <use x="68.603516" xlink:href="#DejaVuSans-65"/>
     </g>
    </g>
    <g id="line2d_27">
     <path d="M 184.641875 203.089687 
L 200.641875 203.089687 
" style="fill:none;stroke:#2ca02c;stroke-linecap:square;stroke-width:1.5;"/>
    </g>
    <g id="line2d_28"/>
    <g id="text_23">
     <!-- DIS -->
     <g transform="translate(207.041875 205.889687)scale(0.08 -0.08)">
      <defs>
       <path d="M 19.671875 64.796875 
L 19.671875 8.109375 
L 31.59375 8.109375 
Q 46.6875 8.109375 53.6875 14.9375 
Q 60.6875 21.78125 60.6875 36.53125 
Q 60.6875 51.171875 53.6875 57.984375 
Q 46.6875 64.796875 31.59375 64.796875 
z
M 9.8125 72.90625 
L 30.078125 72.90625 
Q 51.265625 72.90625 61.171875 64.09375 
Q 71.09375 55.28125 71.09375 36.53125 
Q 71.09375 17.671875 61.125 8.828125 
Q 51.171875 0 30.078125 0 
L 9.8125 0 
z
" id="DejaVuSans-68"/>
       <path d="M 9.8125 72.90625 
L 19.671875 72.90625 
L 19.671875 0 
L 9.8125 0 
z
" id="DejaVuSans-73"/>
      </defs>
      <use xlink:href="#DejaVuSans-68"/>
      <use x="77.001953" xlink:href="#DejaVuSans-73"/>
      <use x="106.494141" xlink:href="#DejaVuSans-83"/>
     </g>
    </g>
    <g id="line2d_29">
     <path d="M 184.641875 214.832187 
L 200.641875 214.832187 
" style="fill:none;stroke:#d62728;stroke-linecap:square;stroke-width:1.5;"/>
    </g>
    <g id="line2d_30"/>
    <g id="text_24">
     <!-- MRK -->
     <g transform="translate(207.041875 217.632187)scale(0.08 -0.08)">
      <defs>
       <path d="M 9.8125 72.90625 
L 24.515625 72.90625 
L 43.109375 23.296875 
L 61.8125 72.90625 
L 76.515625 72.90625 
L 76.515625 0 
L 66.890625 0 
L 66.890625 64.015625 
L 48.09375 14.015625 
L 38.1875 14.015625 
L 19.390625 64.015625 
L 19.390625 0 
L 9.8125 0 
z
" id="DejaVuSans-77"/>
       <path d="M 44.390625 34.1875 
Q 47.5625 33.109375 50.5625 29.59375 
Q 53.5625 26.078125 56.59375 19.921875 
L 66.609375 0 
L 56 0 
L 46.6875 18.703125 
Q 43.0625 26.03125 39.671875 28.421875 
Q 36.28125 30.8125 30.421875 30.8125 
L 19.671875 30.8125 
L 19.671875 0 
L 9.8125 0 
L 9.8125 72.90625 
L 32.078125 72.90625 
Q 44.578125 72.90625 50.734375 67.671875 
Q 56.890625 62.453125 56.890625 51.90625 
Q 56.890625 45.015625 53.6875 40.46875 
Q 50.484375 35.9375 44.390625 34.1875 
z
M 19.671875 64.796875 
L 19.671875 38.921875 
L 32.078125 38.921875 
Q 39.203125 38.921875 42.84375 42.21875 
Q 46.484375 45.515625 46.484375 51.90625 
Q 46.484375 58.296875 42.84375 61.546875 
Q 39.203125 64.796875 32.078125 64.796875 
z
" id="DejaVuSans-82"/>
       <path d="M 9.8125 72.90625 
L 19.671875 72.90625 
L 19.671875 42.09375 
L 52.390625 72.90625 
L 65.09375 72.90625 
L 28.90625 38.921875 
L 67.671875 0 
L 54.6875 0 
L 19.671875 35.109375 
L 19.671875 0 
L 9.8125 0 
z
" id="DejaVuSans-75"/>
      </defs>
      <use xlink:href="#DejaVuSans-77"/>
      <use x="86.279297" xlink:href="#DejaVuSans-82"/>
      <use x="155.761719" xlink:href="#DejaVuSans-75"/>
     </g>
    </g>
    <g id="line2d_31">
     <path d="M 184.641875 226.574687 
L 200.641875 226.574687 
" style="fill:none;stroke:#9467bd;stroke-linecap:square;stroke-width:1.5;"/>
    </g>
    <g id="line2d_32"/>
    <g id="text_25">
     <!-- WMT -->
     <g transform="translate(207.041875 229.374687)scale(0.08 -0.08)">
      <defs>
       <path d="M 3.328125 72.90625 
L 13.28125 72.90625 
L 28.609375 11.28125 
L 43.890625 72.90625 
L 54.984375 72.90625 
L 70.3125 11.28125 
L 85.59375 72.90625 
L 95.609375 72.90625 
L 77.296875 0 
L 64.890625 0 
L 49.515625 63.28125 
L 33.984375 0 
L 21.578125 0 
z
" id="DejaVuSans-87"/>
       <path d="M -0.296875 72.90625 
L 61.375 72.90625 
L 61.375 64.59375 
L 35.5 64.59375 
L 35.5 0 
L 25.59375 0 
L 25.59375 64.59375 
L -0.296875 64.59375 
z
" id="DejaVuSans-84"/>
      </defs>
      <use xlink:href="#DejaVuSans-87"/>
      <use x="98.876953" xlink:href="#DejaVuSans-77"/>
      <use x="185.15625" xlink:href="#DejaVuSans-84"/>
     </g>
    </g>
   </g>
  </g>
 </g>
 <defs>
  <clipPath id="p4f19ab0733">
   <rect height="217.44" width="334.8" x="38.665" y="20.798437"/>
  </clipPath>
 </defs>
</svg>
